<?xml version="1.0" encoding="UTF-8"?>
<!--Generator: Apple Native CoreSVG 123-->
<!DOCTYPE svg
PUBLIC "-//W3C//DTD SVG 1.1//EN"
       "http://www.w3.org/Graphics/SVG/1.1/DTD/svg11.dtd">
<svg version="1.1" xmlns="http://www.w3.org/2000/svg" xmlns:xlink="http://www.w3.org/1999/xlink" width="3300" height="2200">
 <!--glyph: "uni100322.medium", point size: 100.000000, font version: "Version 15.0d7e11", template writer version: "5"-->
 <g id="Notes">
  <rect height="2200" id="artboard" style="fill:white;opacity:1" width="3300" x="0" y="0"/>
  <line id="" style="fill:none;stroke:black;opacity:1;stroke-width:0.5;" x1="263" x2="3036" y1="292" y2="292"/>
  <text style="stroke:none;fill:black;font-family:-apple-system,&quot;SF Pro Display&quot;,&quot;SF Pro Text&quot;,Helvetica,sans-serif;font-weight:bold;" transform="matrix(1 0 0 1 263 322)">Weight/Scale Variations</text>
  <text style="stroke:none;fill:black;font-family:-apple-system,&quot;SF Pro Display&quot;,&quot;SF Pro Text&quot;,Helvetica,sans-serif;text-anchor:middle;" transform="matrix(1 0 0 1 559.711 322)">Ultralight</text>
  <text style="stroke:none;fill:black;font-family:-apple-system,&quot;SF Pro Display&quot;,&quot;SF Pro Text&quot;,Helvetica,sans-serif;text-anchor:middle;" transform="matrix(1 0 0 1 856.422 322)">Thin</text>
  <text style="stroke:none;fill:black;font-family:-apple-system,&quot;SF Pro Display&quot;,&quot;SF Pro Text&quot;,Helvetica,sans-serif;text-anchor:middle;" transform="matrix(1 0 0 1 1153.13 322)">Light</text>
  <text style="stroke:none;fill:black;font-family:-apple-system,&quot;SF Pro Display&quot;,&quot;SF Pro Text&quot;,Helvetica,sans-serif;text-anchor:middle;" transform="matrix(1 0 0 1 1449.84 322)">Regular</text>
  <text style="stroke:none;fill:black;font-family:-apple-system,&quot;SF Pro Display&quot;,&quot;SF Pro Text&quot;,Helvetica,sans-serif;text-anchor:middle;" transform="matrix(1 0 0 1 1746.56 322)">Medium</text>
  <text style="stroke:none;fill:black;font-family:-apple-system,&quot;SF Pro Display&quot;,&quot;SF Pro Text&quot;,Helvetica,sans-serif;text-anchor:middle;" transform="matrix(1 0 0 1 2043.27 322)">Semibold</text>
  <text style="stroke:none;fill:black;font-family:-apple-system,&quot;SF Pro Display&quot;,&quot;SF Pro Text&quot;,Helvetica,sans-serif;text-anchor:middle;" transform="matrix(1 0 0 1 2339.98 322)">Bold</text>
  <text style="stroke:none;fill:black;font-family:-apple-system,&quot;SF Pro Display&quot;,&quot;SF Pro Text&quot;,Helvetica,sans-serif;text-anchor:middle;" transform="matrix(1 0 0 1 2636.69 322)">Heavy</text>
  <text style="stroke:none;fill:black;font-family:-apple-system,&quot;SF Pro Display&quot;,&quot;SF Pro Text&quot;,Helvetica,sans-serif;text-anchor:middle;" transform="matrix(1 0 0 1 2933.4 322)">Black</text>
  <line id="" style="fill:none;stroke:black;opacity:1;stroke-width:0.5;" x1="263" x2="3036" y1="1903" y2="1903"/>
  <g id="" transform="matrix(1 0 0 1 263 1933)">
   <path d="M 9.24805 0.830078 C 13.5547 0.830078 17.1387 -2.74414 17.1387 -7.05078 C 17.1387 -11.3574 13.5449 -14.9316 9.23828 -14.9316 C 4.94141 -14.9316 1.36719 -11.3574 1.36719 -7.05078 C 1.36719 -2.74414 4.95117 0.830078 9.24805 0.830078 Z M 9.24805 -0.654297 C 5.70312 -0.654297 2.87109 -3.49609 2.87109 -7.05078 C 2.87109 -10.6055 5.69336 -13.4473 9.23828 -13.4473 C 12.793 -13.4473 15.6348 -10.6055 15.6445 -7.05078 C 15.6543 -3.49609 12.8027 -0.654297 9.24805 -0.654297 Z M 9.22852 -3.42773 C 9.69727 -3.42773 9.9707 -3.74023 9.9707 -4.25781 L 9.9707 -6.31836 L 12.1973 -6.31836 C 12.6953 -6.31836 13.0371 -6.57227 13.0371 -7.04102 C 13.0371 -7.51953 12.7148 -7.7832 12.1973 -7.7832 L 9.9707 -7.7832 L 9.9707 -10.0098 C 9.9707 -10.5273 9.69727 -10.8496 9.22852 -10.8496 C 8.75977 -10.8496 8.50586 -10.5078 8.50586 -10.0098 L 8.50586 -7.7832 L 6.29883 -7.7832 C 5.78125 -7.7832 5.44922 -7.51953 5.44922 -7.04102 C 5.44922 -6.57227 5.80078 -6.31836 6.29883 -6.31836 L 8.50586 -6.31836 L 8.50586 -4.25781 C 8.50586 -3.75977 8.75977 -3.42773 9.22852 -3.42773 Z"/>
  </g>
  <g id="" transform="matrix(1 0 0 1 281.506 1933)">
   <path d="M 11.709 2.91016 C 17.1582 2.91016 21.6699 -1.60156 21.6699 -7.05078 C 21.6699 -12.4902 17.1484 -17.0117 11.6992 -17.0117 C 6.25977 -17.0117 1.74805 -12.4902 1.74805 -7.05078 C 1.74805 -1.60156 6.26953 2.91016 11.709 2.91016 Z M 11.709 1.25 C 7.09961 1.25 3.41797 -2.44141 3.41797 -7.05078 C 3.41797 -11.6504 7.08984 -15.3516 11.6992 -15.3516 C 16.3086 -15.3516 20 -11.6504 20.0098 -7.05078 C 20.0195 -2.44141 16.3184 1.25 11.709 1.25 Z M 11.6895 -2.41211 C 12.207 -2.41211 12.5195 -2.77344 12.5195 -3.33984 L 12.5195 -6.23047 L 15.5762 -6.23047 C 16.123 -6.23047 16.5039 -6.51367 16.5039 -7.03125 C 16.5039 -7.55859 16.1426 -7.86133 15.5762 -7.86133 L 12.5195 -7.86133 L 12.5195 -10.9277 C 12.5195 -11.5039 12.207 -11.8555 11.6895 -11.8555 C 11.1719 -11.8555 10.8789 -11.4844 10.8789 -10.9277 L 10.8789 -7.86133 L 7.83203 -7.86133 C 7.26562 -7.86133 6.89453 -7.55859 6.89453 -7.03125 C 6.89453 -6.51367 7.28516 -6.23047 7.83203 -6.23047 L 10.8789 -6.23047 L 10.8789 -3.33984 C 10.8789 -2.79297 11.1719 -2.41211 11.6895 -2.41211 Z"/>
  </g>
  <g id="" transform="matrix(1 0 0 1 304.924 1933)">
   <path d="M 14.9707 5.67383 C 21.9336 5.67383 27.6953 -0.078125 27.6953 -7.04102 C 27.6953 -14.0039 21.9238 -19.7559 14.9609 -19.7559 C 8.00781 -19.7559 2.25586 -14.0039 2.25586 -7.04102 C 2.25586 -0.078125 8.01758 5.67383 14.9707 5.67383 Z M 14.9707 3.85742 C 8.93555 3.85742 4.08203 -1.00586 4.08203 -7.04102 C 4.08203 -13.0762 8.92578 -17.9395 14.9609 -17.9395 C 21.0059 -17.9395 25.8594 -13.0762 25.8691 -7.04102 C 25.8789 -1.00586 21.0156 3.85742 14.9707 3.85742 Z M 14.9512 -1.06445 C 15.5176 -1.06445 15.8691 -1.45508 15.8691 -2.06055 L 15.8691 -6.13281 L 20.1074 -6.13281 C 20.6934 -6.13281 21.1133 -6.46484 21.1133 -7.02148 C 21.1133 -7.59766 20.7227 -7.93945 20.1074 -7.93945 L 15.8691 -7.93945 L 15.8691 -12.1875 C 15.8691 -12.8027 15.5176 -13.1934 14.9512 -13.1934 C 14.3848 -13.1934 14.0625 -12.7832 14.0625 -12.1875 L 14.0625 -7.93945 L 9.83398 -7.93945 C 9.21875 -7.93945 8.80859 -7.59766 8.80859 -7.02148 C 8.80859 -6.46484 9.23828 -6.13281 9.83398 -6.13281 L 14.0625 -6.13281 L 14.0625 -2.06055 C 14.0625 -1.47461 14.3848 -1.06445 14.9512 -1.06445 Z"/>
  </g>
  <text style="stroke:none;fill:black;font-family:-apple-system,&quot;SF Pro Display&quot;,&quot;SF Pro Text&quot;,Helvetica,sans-serif;font-weight:bold;" transform="matrix(1 0 0 1 263 1953)">Design Variations</text>
  <text style="stroke:none;fill:black;font-family:-apple-system,&quot;SF Pro Display&quot;,&quot;SF Pro Text&quot;,Helvetica,sans-serif;" transform="matrix(1 0 0 1 263 1971)">Symbols are supported in up to nine weights and three scales.</text>
  <text style="stroke:none;fill:black;font-family:-apple-system,&quot;SF Pro Display&quot;,&quot;SF Pro Text&quot;,Helvetica,sans-serif;" transform="matrix(1 0 0 1 263 1989)">For optimal layout with text and other symbols, vertically align</text>
  <text style="stroke:none;fill:black;font-family:-apple-system,&quot;SF Pro Display&quot;,&quot;SF Pro Text&quot;,Helvetica,sans-serif;" transform="matrix(1 0 0 1 263 2007)">symbols with the adjacent text.</text>
  <rect height="14" id="" style="fill:#00AEEF;stroke:none;opacity:0.4;" width="3" x="776" y="1919"/>
  <g id="" transform="matrix(1 0 0 1 779 1933)">
   <path d="M 10.5273 0 L 12.373 0 L 7.17773 -14.0918 L 5.43945 -14.0918 L 0.244141 0 L 2.08984 0 L 3.50586 -4.0332 L 9.11133 -4.0332 Z M 6.2793 -11.9531 L 6.33789 -11.9531 L 8.59375 -5.52734 L 4.02344 -5.52734 Z"/>
  </g>
  <rect height="14" id="" style="fill:#00AEEF;stroke:none;opacity:0.4;" width="3" x="791.617" y="1919"/>
  <text style="stroke:none;fill:black;font-family:-apple-system,&quot;SF Pro Display&quot;,&quot;SF Pro Text&quot;,Helvetica,sans-serif;font-weight:bold;" transform="matrix(1 0 0 1 776 1953)">Margins</text>
  <text style="stroke:none;fill:black;font-family:-apple-system,&quot;SF Pro Display&quot;,&quot;SF Pro Text&quot;,Helvetica,sans-serif;" transform="matrix(1 0 0 1 776 1971)">Leading and trailing margins on the left and right side of each symbol</text>
  <text style="stroke:none;fill:black;font-family:-apple-system,&quot;SF Pro Display&quot;,&quot;SF Pro Text&quot;,Helvetica,sans-serif;" transform="matrix(1 0 0 1 776 1989)">can be adjusted by modifying the width of the blue rectangles.</text>
  <text style="stroke:none;fill:black;font-family:-apple-system,&quot;SF Pro Display&quot;,&quot;SF Pro Text&quot;,Helvetica,sans-serif;" transform="matrix(1 0 0 1 776 2007)">Modifications are automatically applied proportionally to all</text>
  <text style="stroke:none;fill:black;font-family:-apple-system,&quot;SF Pro Display&quot;,&quot;SF Pro Text&quot;,Helvetica,sans-serif;" transform="matrix(1 0 0 1 776 2025)">scales and weights.</text>
  <g id="" transform="matrix(1 0 0 1 1289 1933)">
   <path d="M 2.83203 3.11523 L 4.375 4.6582 C 5.22461 5.48828 6.19141 5.41992 7.06055 4.46289 L 17.2754 -6.66016 C 17.7051 -6.36719 18.0957 -6.37695 18.5645 -6.47461 L 19.6094 -6.68945 L 20.3027 -5.99609 L 20.2539 -5.47852 C 20.1855 -4.95117 20.3516 -4.53125 20.8496 -4.0332 L 21.6602 -3.22266 C 22.168 -2.71484 22.8223 -2.68555 23.3008 -3.16406 L 26.5527 -6.41602 C 27.0312 -6.89453 27.0117 -7.54883 26.5039 -8.05664 L 25.6836 -8.87695 C 25.1855 -9.375 24.7754 -9.55078 24.2383 -9.47266 L 23.7109 -9.41406 L 23.0566 -10.0781 L 23.3398 -11.2207 C 23.4863 -11.7871 23.3398 -12.2559 22.7148 -12.8613 L 20.3027 -15.2539 C 16.7578 -18.7793 12.2266 -18.6719 9.11133 -15.5371 C 8.69141 -15.1074 8.64258 -14.5215 8.91602 -14.0918 C 9.15039 -13.7207 9.62891 -13.4961 10.2734 -13.6621 C 11.7871 -14.043 13.3008 -13.9258 14.7852 -12.9199 L 14.1602 -11.3379 C 13.9258 -10.752 13.9453 -10.2734 14.1797 -9.83398 L 3.01758 0.439453 C 2.08008 1.30859 1.97266 2.25586 2.83203 3.11523 Z M 10.6738 -15.1465 C 13.3398 -17.1387 16.6504 -16.8262 19.0527 -14.4141 L 21.6797 -11.8066 C 21.9141 -11.5723 21.9434 -11.3867 21.8848 -11.0938 L 21.5039 -9.53125 L 23.0762 -7.95898 L 24.043 -8.04688 C 24.3262 -8.07617 24.4141 -8.05664 24.6387 -7.83203 L 25.2637 -7.20703 L 22.5098 -4.46289 L 21.8848 -5.07812 C 21.6602 -5.30273 21.6406 -5.40039 21.6699 -5.68359 L 21.7578 -6.64062 L 20.1953 -8.20312 L 18.5742 -7.89062 C 18.291 -7.83203 18.1445 -7.83203 17.9102 -8.07617 L 15.7324 -10.2539 C 15.5078 -10.4883 15.4785 -10.625 15.6055 -10.9473 L 16.5527 -13.2227 C 14.9512 -14.7559 12.8418 -15.6055 10.8008 -14.9512 C 10.7129 -14.9219 10.6445 -14.9414 10.6152 -14.9805 C 10.5859 -15.0293 10.5859 -15.0781 10.6738 -15.1465 Z M 4.10156 2.41211 C 3.61328 1.91406 3.78906 1.61133 4.12109 1.30859 L 15.0781 -8.80859 L 16.3086 -7.57812 L 6.15234 3.34961 C 5.84961 3.68164 5.46875 3.7793 5.06836 3.37891 Z"/>
  </g>
  <text style="stroke:none;fill:black;font-family:-apple-system,&quot;SF Pro Display&quot;,&quot;SF Pro Text&quot;,Helvetica,sans-serif;font-weight:bold;" transform="matrix(1 0 0 1 1289 1953)">Exporting</text>
  <text style="stroke:none;fill:black;font-family:-apple-system,&quot;SF Pro Display&quot;,&quot;SF Pro Text&quot;,Helvetica,sans-serif;" transform="matrix(1 0 0 1 1289 1971)">Symbols should be outlined when exporting to ensure the</text>
  <text style="stroke:none;fill:black;font-family:-apple-system,&quot;SF Pro Display&quot;,&quot;SF Pro Text&quot;,Helvetica,sans-serif;" transform="matrix(1 0 0 1 1289 1989)">design is preserved when submitting to Xcode.</text>
  <text id="template-version" style="stroke:none;fill:black;font-family:-apple-system,&quot;SF Pro Display&quot;,&quot;SF Pro Text&quot;,Helvetica,sans-serif;text-anchor:end;" transform="matrix(1 0 0 1 3036 1933)">Template v.1.0</text>
  <text style="stroke:none;fill:black;font-family:-apple-system,&quot;SF Pro Display&quot;,&quot;SF Pro Text&quot;,Helvetica,sans-serif;text-anchor:end;" transform="matrix(1 0 0 1 3036 1951)">Generated from camera.rotate</text>
  <text style="stroke:none;fill:black;font-family:-apple-system,&quot;SF Pro Display&quot;,&quot;SF Pro Text&quot;,Helvetica,sans-serif;text-anchor:end;" transform="matrix(1 0 0 1 3036 1969)">Typeset at 100 points</text>
  <text style="stroke:none;fill:black;font-family:-apple-system,&quot;SF Pro Display&quot;,&quot;SF Pro Text&quot;,Helvetica,sans-serif;" transform="matrix(1 0 0 1 263 726)">Small</text>
  <text style="stroke:none;fill:black;font-family:-apple-system,&quot;SF Pro Display&quot;,&quot;SF Pro Text&quot;,Helvetica,sans-serif;" transform="matrix(1 0 0 1 263 1156)">Medium</text>
  <text style="stroke:none;fill:black;font-family:-apple-system,&quot;SF Pro Display&quot;,&quot;SF Pro Text&quot;,Helvetica,sans-serif;" transform="matrix(1 0 0 1 263 1586)">Large</text>
 </g>
 <g id="Guides">
  <g id="H-reference" style="fill:#27AAE1;stroke:none;" transform="matrix(1 0 0 1 339 696)">
   <path d="M 54.9316 0 L 57.666 0 L 30.5664 -70.459 L 28.0762 -70.459 L 0.976562 0 L 3.66211 0 L 12.9395 -24.4629 L 45.7031 -24.4629 Z M 29.1992 -67.0898 L 29.4434 -67.0898 L 44.8242 -26.709 L 13.8184 -26.709 Z"/>
  </g>
  <line id="Baseline-S" style="fill:none;stroke:#27AAE1;opacity:1;stroke-width:0.577;" x1="263" x2="3036" y1="696" y2="696"/>
  <line id="Capline-S" style="fill:none;stroke:#27AAE1;opacity:1;stroke-width:0.577;" x1="263" x2="3036" y1="625.541" y2="625.541"/>
  <g id="H-reference" style="fill:#27AAE1;stroke:none;" transform="matrix(1 0 0 1 339 1126)">
   <path d="M 54.9316 0 L 57.666 0 L 30.5664 -70.459 L 28.0762 -70.459 L 0.976562 0 L 3.66211 0 L 12.9395 -24.4629 L 45.7031 -24.4629 Z M 29.1992 -67.0898 L 29.4434 -67.0898 L 44.8242 -26.709 L 13.8184 -26.709 Z"/>
  </g>
  <line id="Baseline-M" style="fill:none;stroke:#27AAE1;opacity:1;stroke-width:0.577;" x1="263" x2="3036" y1="1126" y2="1126"/>
  <line id="Capline-M" style="fill:none;stroke:#27AAE1;opacity:1;stroke-width:0.577;" x1="263" x2="3036" y1="1055.54" y2="1055.54"/>
  <g id="H-reference" style="fill:#27AAE1;stroke:none;" transform="matrix(1 0 0 1 339 1556)">
   <path d="M 54.9316 0 L 57.666 0 L 30.5664 -70.459 L 28.0762 -70.459 L 0.976562 0 L 3.66211 0 L 12.9395 -24.4629 L 45.7031 -24.4629 Z M 29.1992 -67.0898 L 29.4434 -67.0898 L 44.8242 -26.709 L 13.8184 -26.709 Z"/>
  </g>
  <line id="Baseline-L" style="fill:none;stroke:#27AAE1;opacity:1;stroke-width:0.577;" x1="263" x2="3036" y1="1556" y2="1556"/>
  <line id="Capline-L" style="fill:none;stroke:#27AAE1;opacity:1;stroke-width:0.577;" x1="263" x2="3036" y1="1485.54" y2="1485.54"/>
  <rect height="119.336" id="left-margin" style="fill:#00AEEF;stroke:none;opacity:0.4;" width="12.4512" x="1380.02" y="1030.79"/>
  <rect height="119.336" id="right-margin" style="fill:#00AEEF;stroke:none;opacity:0.4;" width="12.4512" x="1507.22" y="1030.79"/>
 </g>
 <g id="Symbols">
  <g id="Black-L" transform="matrix(1 0 0 1 2839.85 1556)">
   <path d="M 39.9902 26.5137 L 147.119 26.5137 C 162.354 26.5137 171.045 17.8711 171.045 2.68555 L 171.045 -63.8184 C 171.045 -79.0527 162.354 -87.6465 147.119 -87.6465 L 134.766 -87.6465 C 129.932 -87.6465 128.027 -88.2324 124.365 -91.5039 L 119.58 -95.8984 C 115.869 -99.2676 112.256 -100.635 106.055 -100.635 L 81.0547 -100.635 C 74.8535 -100.635 71.1914 -99.2676 67.5293 -95.8984 L 62.7441 -91.5039 C 59.082 -88.2324 57.1777 -87.6465 52.3438 -87.6465 L 39.9902 -87.6465 C 24.7559 -87.6465 16.0645 -79.0527 16.0645 -63.8184 L 16.0645 2.68555 C 16.0645 17.8711 24.7559 26.5137 39.9902 26.5137 Z M 42.6758 6.29883 C 38.4766 6.29883 36.3281 4.39453 36.3281 -0.146484 L 36.3281 -60.9863 C 36.3281 -65.5273 38.4766 -67.4316 42.6758 -67.4316 L 59.668 -67.4316 C 65.2832 -67.4316 67.8223 -68.2617 71.0449 -71.6309 L 75.3906 -76.0254 C 78.7109 -79.4434 80.8594 -80.3711 86.2305 -80.3711 L 100.83 -80.3711 C 106.25 -80.3711 108.398 -79.3457 111.475 -76.2207 L 116.064 -71.6309 C 119.287 -68.3105 121.826 -67.4316 127.441 -67.4316 L 144.385 -67.4316 C 148.633 -67.4316 150.781 -65.5273 150.781 -60.9863 L 150.781 -0.146484 C 150.781 4.39453 148.633 6.29883 144.385 6.29883 Z M 93.7012 -66.4062 C 86.9141 -66.4062 81.25 -64.6484 76.9531 -61.6211 C 73.0469 -59.0332 72.4609 -55.0781 74.3164 -52.1973 C 76.2695 -49.1699 79.7852 -47.7539 83.7891 -50.2441 C 86.9629 -52.3438 90.0879 -53.2715 93.7012 -53.2715 C 102.148 -53.2715 109.131 -48.291 111.914 -40.9668 L 107.959 -40.9668 C 104.297 -40.9668 102.93 -37.207 105.273 -34.2285 L 115.088 -21.4844 C 117.188 -18.8477 120.703 -18.7988 122.754 -21.4844 L 132.471 -34.2285 C 134.766 -37.2559 133.398 -40.9668 129.688 -40.9668 L 125.488 -40.9668 C 122.51 -55.7617 109.619 -66.4062 93.7012 -66.4062 Z M 57.5684 -27.4414 L 61.9141 -27.4414 C 64.9414 -12.6465 77.7832 -2.00195 93.75 -2.00195 C 100.488 -2.00195 106.152 -3.75977 110.449 -6.78711 C 114.355 -9.375 114.99 -13.2812 113.086 -16.2109 C 111.133 -19.2383 107.617 -20.6055 103.613 -18.1641 C 100.439 -16.0645 97.3145 -15.1367 93.75 -15.1367 C 85.2539 -15.1367 78.2715 -20.1172 75.4883 -27.4414 L 79.3457 -27.4414 C 83.0078 -27.4414 84.3262 -31.2012 82.0312 -34.1797 L 72.2168 -46.9238 C 70.1172 -49.5605 66.5527 -49.6094 64.5508 -46.9238 L 54.834 -34.1797 C 52.5391 -31.1523 53.9062 -27.4414 57.5684 -27.4414 Z"/>
  </g>
  <g id="Heavy-L" transform="matrix(1 0 0 1 2544.01 1556)">
   <path d="M 38.8184 25.4883 L 146.533 25.4883 C 161.133 25.4883 169.287 17.4316 169.287 2.88086 L 169.287 -63.5742 C 169.287 -78.125 161.133 -86.1816 146.533 -86.1816 L 133.398 -86.1816 C 128.516 -86.1816 126.758 -86.8164 123.242 -90.0879 L 118.359 -94.8242 C 114.795 -98.2422 111.279 -99.6582 105.029 -99.6582 L 80.127 -99.6582 C 73.877 -99.6582 70.3613 -98.2422 66.7969 -94.8242 L 61.9141 -90.0879 C 58.4473 -86.8164 56.6406 -86.1816 51.7578 -86.1816 L 38.8184 -86.1816 C 24.2188 -86.1816 16.0645 -78.125 16.0645 -63.5742 L 16.0645 2.88086 C 16.0645 17.4316 24.2188 25.4883 38.8184 25.4883 Z M 40.918 8.00781 C 36.1328 8.00781 33.5938 5.71289 33.5938 0.585938 L 33.5938 -61.2793 C 33.5938 -66.4062 36.1328 -68.7012 40.918 -68.7012 L 57.8125 -68.7012 C 63.4766 -68.7012 66.0645 -69.5801 69.2871 -72.9492 L 73.8281 -77.6855 C 77.1973 -81.2012 79.2969 -82.1777 84.668 -82.1777 L 100.488 -82.1777 C 105.908 -82.1777 107.959 -81.1523 111.182 -77.832 L 115.869 -72.9492 C 119.092 -69.6289 121.729 -68.7012 127.344 -68.7012 L 144.385 -68.7012 C 149.219 -68.7012 151.758 -66.4062 151.758 -61.2793 L 151.758 0.585938 C 151.758 5.71289 149.219 8.00781 144.385 8.00781 Z M 92.7734 -66.5039 C 85.791 -66.5039 79.5898 -64.502 75.0488 -61.084 C 71.4355 -58.5938 70.8496 -54.9316 72.7051 -52.2949 C 74.6582 -49.5117 77.8809 -48.5352 81.3965 -50.7812 C 85.0098 -53.3691 88.5742 -54.541 92.7734 -54.541 C 102.295 -54.541 110.107 -48.6816 112.891 -40.332 L 108.154 -40.332 C 104.736 -40.332 103.564 -36.9141 105.664 -34.1797 L 115.43 -21.2402 C 117.383 -18.7012 120.703 -18.6523 122.656 -21.2402 L 132.275 -34.1797 C 134.326 -36.9629 133.154 -40.332 129.785 -40.332 L 125.049 -40.332 C 122.07 -55.6152 109.033 -66.5039 92.7734 -66.5039 Z M 55.7129 -27.5391 L 60.5957 -27.5391 C 63.5254 -12.2559 76.6113 -1.36719 92.8223 -1.36719 C 99.8535 -1.36719 106.006 -3.41797 110.596 -6.83594 C 114.16 -9.27734 114.795 -12.9395 112.939 -15.625 C 110.986 -18.3594 107.715 -19.3848 104.199 -17.0898 C 100.586 -14.5508 97.0215 -13.3789 92.8223 -13.3789 C 83.3496 -13.3789 75.5371 -19.1895 72.7539 -27.5391 L 77.3438 -27.5391 C 80.7129 -27.5391 81.8848 -31.0059 79.7852 -33.6914 L 70.0684 -46.6309 C 68.0664 -49.1699 64.7461 -49.2188 62.8418 -46.6309 L 53.2227 -33.6914 C 51.123 -30.9082 52.2949 -27.5391 55.7129 -27.5391 Z"/>
  </g>
  <g id="Bold-L" transform="matrix(1 0 0 1 2248.28 1556)">
   <path d="M 37.5 24.3652 L 145.85 24.3652 C 159.766 24.3652 167.334 16.8945 167.334 3.07617 L 167.334 -63.2324 C 167.334 -77.0508 159.766 -84.5703 145.85 -84.5703 L 131.885 -84.5703 C 127.002 -84.5703 125.293 -85.2539 122.021 -88.5254 L 116.992 -93.6523 C 113.574 -97.1191 110.254 -98.6328 103.955 -98.6328 L 79.0527 -98.6328 C 72.8027 -98.6328 69.4336 -97.1191 66.0156 -93.6523 L 60.9863 -88.5254 C 57.7148 -85.3027 56.0059 -84.5703 51.123 -84.5703 L 37.5 -84.5703 C 23.6328 -84.5703 16.0645 -77.0508 16.0645 -63.2324 L 16.0645 3.07617 C 16.0645 16.8945 23.6328 24.3652 37.5 24.3652 Z M 38.9648 9.91211 C 33.4961 9.91211 30.5176 7.17773 30.5176 1.41602 L 30.5176 -61.6211 C 30.5176 -67.3828 33.4961 -70.1172 38.9648 -70.1172 L 55.7617 -70.1172 C 61.4258 -70.1172 64.1602 -70.9961 67.334 -74.5117 L 72.0703 -79.541 C 75.5371 -83.252 77.5391 -84.1797 82.9102 -84.1797 L 100.098 -84.1797 C 105.469 -84.1797 107.471 -83.2031 110.84 -79.6387 L 115.674 -74.5117 C 118.896 -71.0449 121.582 -70.1172 127.246 -70.1172 L 144.434 -70.1172 C 149.854 -70.1172 152.881 -67.3828 152.881 -61.6211 L 152.881 1.41602 C 152.881 7.17773 149.854 9.91211 144.434 9.91211 Z M 91.7969 -66.6504 C 84.5215 -66.6504 77.7344 -64.3066 72.8516 -60.4492 C 69.6777 -58.1055 69.043 -54.7852 70.9473 -52.3926 C 72.8516 -49.9023 75.7812 -49.3652 78.8086 -51.416 C 82.8613 -54.541 86.9141 -55.957 91.7969 -55.957 C 102.441 -55.957 111.133 -49.1211 113.867 -39.6484 L 108.301 -39.6484 C 105.225 -39.6484 104.248 -36.5723 106.104 -34.1309 L 115.771 -20.9961 C 117.627 -18.6035 120.703 -18.5059 122.51 -20.9961 L 132.031 -34.1309 C 133.887 -36.6211 132.959 -39.6484 129.834 -39.6484 L 124.512 -39.6484 C 121.631 -55.4688 108.398 -66.6504 91.7969 -66.6504 Z M 53.5645 -27.6855 L 59.082 -27.6855 C 62.0117 -11.8164 75.2441 -0.634766 91.8457 -0.634766 C 99.1211 -0.634766 105.859 -2.97852 110.791 -6.88477 C 113.965 -9.17969 114.6 -12.5 112.695 -14.9414 C 110.791 -17.3828 107.861 -17.9688 104.834 -15.918 C 100.732 -12.8418 96.7285 -11.377 91.8457 -11.377 C 81.2012 -11.377 72.4609 -18.2129 69.7266 -27.6855 L 75.0977 -27.6855 C 78.1738 -27.6855 79.1504 -30.7129 77.2949 -33.2031 L 67.6758 -46.2891 C 65.8203 -48.7305 62.7441 -48.8281 60.9375 -46.2891 L 51.3672 -33.2031 C 49.5605 -30.6641 50.4883 -27.6855 53.5645 -27.6855 Z"/>
  </g>
  <g id="Semibold-L" transform="matrix(1 0 0 1 1952.25 1556)">
   <path d="M 36.6211 23.584 L 145.41 23.584 C 158.838 23.584 165.967 16.5039 165.967 3.17383 L 165.967 -63.0371 C 165.967 -76.3672 158.838 -83.4473 145.41 -83.4473 L 130.859 -83.4473 C 125.928 -83.4473 124.316 -84.1797 121.143 -87.5 L 116.064 -92.8223 C 112.695 -96.2891 109.473 -97.9004 103.174 -97.9004 L 78.3203 -97.9004 C 72.0215 -97.9004 68.7988 -96.2891 65.4297 -92.8223 L 60.4004 -87.5 C 57.2266 -84.2285 55.5664 -83.4473 50.6348 -83.4473 L 36.6211 -83.4473 C 23.1934 -83.4473 16.0645 -76.3672 16.0645 -63.0371 L 16.0645 3.17383 C 16.0645 16.5039 23.1934 23.584 36.6211 23.584 Z M 37.5977 11.2793 C 31.6895 11.2793 28.418 8.20312 28.418 1.95312 L 28.418 -61.8164 C 28.418 -68.0664 31.6895 -71.0938 37.5977 -71.0938 L 54.3457 -71.0938 C 60.0098 -71.0938 62.793 -72.0215 66.0156 -75.5371 L 70.8496 -80.8105 C 74.3652 -84.6191 76.3184 -85.5469 81.6895 -85.5469 L 99.8535 -85.5469 C 105.225 -85.5469 107.129 -84.6191 110.596 -80.8594 L 115.479 -75.5371 C 118.701 -72.0215 121.533 -71.0938 127.197 -71.0938 L 144.434 -71.0938 C 150.342 -71.0938 153.613 -68.0664 153.613 -61.8164 L 153.613 1.95312 C 153.613 8.20312 150.342 11.2793 144.434 11.2793 Z M 91.1133 -66.748 C 83.6426 -66.748 76.4648 -64.209 71.3867 -60.0098 C 68.457 -57.7637 67.8223 -54.6875 69.6777 -52.4414 C 71.582 -50.1953 74.3164 -49.9512 76.9531 -51.8066 C 81.3965 -55.3223 85.7422 -56.9336 91.1133 -56.9336 C 102.49 -56.9336 111.865 -49.4141 114.551 -39.1602 L 108.447 -39.1602 C 105.615 -39.1602 104.736 -36.377 106.445 -34.082 L 116.016 -20.8496 C 117.773 -18.5059 120.654 -18.4082 122.412 -20.8496 L 131.885 -34.082 C 133.545 -36.4258 132.764 -39.1602 129.883 -39.1602 L 124.17 -39.1602 C 121.289 -55.3711 107.91 -66.748 91.1133 -66.748 Z M 52.0996 -27.7832 L 58.0566 -27.7832 C 60.9863 -11.5234 74.3652 -0.146484 91.1621 -0.146484 C 98.6328 -0.146484 105.762 -2.68555 110.889 -6.88477 C 113.818 -9.08203 114.453 -12.207 112.549 -14.4531 C 110.693 -16.748 107.959 -16.9922 105.225 -15.0879 C 100.83 -11.6211 96.5332 -9.96094 91.1621 -9.96094 C 79.7852 -9.96094 70.3613 -17.5293 67.6758 -27.7832 L 73.584 -27.7832 C 76.416 -27.7832 77.2949 -30.5664 75.5859 -32.8125 L 66.0156 -46.0449 C 64.2578 -48.4375 61.377 -48.5352 59.6191 -46.0449 L 50.1465 -32.8125 C 48.4863 -30.5176 49.2676 -27.7832 52.0996 -27.7832 Z"/>
  </g>
  <g id="Medium-L" transform="matrix(1 0 0 1 1656.05 1556)">
   <path d="M 35.9375 22.998 L 145.068 22.998 C 158.105 22.998 164.941 16.2109 164.941 3.27148 L 164.941 -62.8906 C 164.941 -75.8301 158.105 -82.6172 145.068 -82.6172 L 130.078 -82.6172 C 125.098 -82.6172 123.584 -83.3496 120.459 -86.6699 L 115.381 -92.1875 C 112.061 -95.7031 108.936 -97.3145 102.588 -97.3145 L 77.7832 -97.3145 C 71.4355 -97.3145 68.3105 -95.7031 65.0391 -92.1875 L 59.9121 -86.6699 C 56.8848 -83.3984 55.2734 -82.6172 50.293 -82.6172 L 35.9375 -82.6172 C 22.9004 -82.6172 16.0645 -75.8301 16.0645 -62.8906 L 16.0645 3.27148 C 16.0645 16.2109 22.9004 22.998 35.9375 22.998 Z M 36.5723 12.2559 C 30.3223 12.2559 26.8066 8.98438 26.8066 2.39258 L 26.8066 -62.0117 C 26.8066 -68.5547 30.3223 -71.875 36.5723 -71.875 L 53.2715 -71.875 C 58.9355 -71.875 61.7676 -72.7539 64.9902 -76.3184 L 69.9707 -81.7871 C 73.4863 -85.6934 75.3906 -86.5723 80.7617 -86.5723 L 99.6582 -86.5723 C 104.98 -86.5723 106.885 -85.6445 110.4 -81.8359 L 115.381 -76.3184 C 118.604 -72.8027 121.484 -71.875 127.148 -71.875 L 144.434 -71.875 C 150.684 -71.875 154.199 -68.5547 154.199 -62.0117 L 154.199 2.39258 C 154.199 8.98438 150.684 12.2559 144.434 12.2559 Z M 90.5762 -66.8457 C 82.959 -66.8457 75.4883 -64.1113 70.2637 -59.668 C 67.4805 -57.5195 66.8945 -54.5898 68.75 -52.4902 C 70.6055 -50.3906 73.1934 -50.3418 75.5859 -52.1484 C 80.2246 -55.9082 84.8633 -57.666 90.5762 -57.666 C 102.588 -57.666 112.451 -49.6094 115.088 -38.7695 L 108.545 -38.7695 C 105.859 -38.7695 105.078 -36.1816 106.689 -34.082 L 116.211 -20.752 C 117.871 -18.4082 120.654 -18.3105 122.363 -20.752 L 131.787 -34.082 C 133.301 -36.2305 132.666 -38.7695 129.932 -38.7695 L 123.877 -38.7695 C 121.045 -55.3223 107.568 -66.8457 90.5762 -66.8457 Z M 51.0254 -27.832 L 57.2754 -27.832 C 60.2051 -11.2793 73.6328 0.195312 90.6738 0.195312 C 98.2422 0.195312 105.664 -2.49023 110.986 -6.93359 C 113.721 -9.0332 114.307 -12.0117 112.451 -14.1113 C 110.596 -16.2109 108.057 -16.2598 105.566 -14.502 C 100.928 -10.7422 96.3379 -8.93555 90.6738 -8.93555 C 78.6621 -8.93555 68.75 -16.9922 66.1133 -27.832 L 72.4121 -27.832 C 75.0977 -27.832 75.8789 -30.4199 74.2676 -32.5195 L 64.7461 -45.8984 C 63.0859 -48.1934 60.3027 -48.291 58.5938 -45.8984 L 49.1699 -32.5195 C 47.6562 -30.3711 48.291 -27.832 51.0254 -27.832 Z"/>
  </g>
  <g id="Regular-L" transform="matrix(1 0 0 1 1360 1556)">
   <path d="M 35.0586 22.2168 L 144.58 22.2168 C 157.178 22.2168 163.623 15.8691 163.623 3.41797 L 163.623 -62.6953 C 163.623 -75.0977 157.178 -81.4941 144.58 -81.4941 L 129.053 -81.4941 C 124.023 -81.4941 122.607 -82.2754 119.629 -85.5957 L 114.453 -91.4062 C 111.23 -94.9219 108.203 -96.582 101.855 -96.582 L 77.0996 -96.582 C 70.7031 -96.582 67.6758 -94.9219 64.4531 -91.4062 L 59.2773 -85.5957 C 56.3965 -82.373 54.834 -81.4941 49.8535 -81.4941 L 35.0586 -81.4941 C 22.4609 -81.4941 16.0645 -75.0977 16.0645 -62.6953 L 16.0645 3.41797 C 16.0645 15.8691 22.4609 22.2168 35.0586 22.2168 Z M 35.2539 13.5742 C 28.5645 13.5742 24.707 9.96094 24.707 2.97852 L 24.707 -62.207 C 24.707 -69.2383 28.5645 -72.8516 35.2539 -72.8516 L 51.8555 -72.8516 C 57.5195 -72.8516 60.4492 -73.7793 63.6719 -77.3926 L 68.75 -83.0566 C 72.3633 -87.0605 74.2188 -87.9395 79.541 -87.9395 L 99.3652 -87.9395 C 104.736 -87.9395 106.543 -87.0605 110.156 -83.0566 L 115.234 -77.3926 C 118.457 -73.7793 121.387 -72.8516 127.1 -72.8516 L 144.434 -72.8516 C 151.123 -72.8516 154.932 -69.2383 154.932 -62.207 L 154.932 2.97852 C 154.932 9.96094 151.123 13.5742 144.434 13.5742 Z M 89.8926 -66.9434 C 82.1289 -66.9434 74.2188 -64.0137 68.7988 -59.2773 C 66.2598 -57.1777 65.6738 -54.4922 67.5293 -52.5879 C 69.3848 -50.6348 71.7285 -50.9277 73.8281 -52.5391 C 78.7598 -56.6895 83.7402 -58.6426 89.8926 -58.6426 C 102.637 -58.6426 113.184 -49.9023 115.723 -38.2812 L 108.691 -38.2812 C 106.201 -38.2812 105.566 -35.9863 106.982 -34.0332 L 116.455 -20.5566 C 118.018 -18.3105 120.654 -18.2129 122.266 -20.5566 L 131.641 -34.0332 C 133.008 -36.0352 132.52 -38.2812 129.98 -38.2812 L 123.535 -38.2812 C 120.703 -55.2246 107.129 -66.9434 89.8926 -66.9434 Z M 49.5605 -27.9297 L 56.2988 -27.9297 C 59.1309 -10.9863 72.7539 0.683594 89.9902 0.683594 C 97.7539 0.683594 105.566 -2.19727 111.084 -6.93359 C 113.574 -8.98438 114.16 -11.7188 112.305 -13.6719 C 110.449 -15.5762 108.154 -15.2832 106.006 -13.6719 C 101.025 -9.57031 96.1426 -7.56836 89.9902 -7.56836 C 77.1973 -7.56836 66.6504 -16.3086 64.1113 -27.9297 L 70.8984 -27.9297 C 73.3398 -27.9297 74.0234 -30.2246 72.6074 -32.1777 L 63.0859 -45.6543 C 61.5234 -47.9004 58.9355 -47.998 57.2754 -45.6543 L 47.9492 -32.1777 C 46.582 -30.1758 47.0703 -27.9297 49.5605 -27.9297 Z"/>
  </g>
  <g id="Light-L" transform="matrix(1 0 0 1 1063.68 1556)">
   <path d="M 34.0332 21.4355 L 144.873 21.4355 C 156.738 21.4355 162.842 15.2344 162.842 3.56445 L 162.842 -62.6953 C 162.842 -74.4141 156.738 -80.5664 144.873 -80.5664 L 128.223 -80.5664 C 123.145 -80.5664 121.777 -81.1035 118.604 -84.668 L 113.281 -90.625 C 109.961 -94.2383 107.178 -95.6055 101.025 -95.6055 L 76.709 -95.6055 C 70.5566 -95.6055 67.7734 -94.2383 64.4531 -90.625 L 59.1309 -84.668 C 56.0547 -81.25 54.5898 -80.5664 49.5117 -80.5664 L 34.0332 -80.5664 C 22.168 -80.5664 16.0645 -74.4141 16.0645 -62.6953 L 16.0645 3.56445 C 16.0645 15.2344 22.168 21.4355 34.0332 21.4355 Z M 34.1797 14.7949 C 26.9043 14.7949 22.7051 10.8398 22.7051 3.22266 L 22.7051 -62.3535 C 22.7051 -70.0195 26.9043 -73.9258 34.1797 -73.9258 L 50.7324 -73.9258 C 56.4453 -73.9258 59.2285 -74.707 62.5488 -78.418 L 67.8223 -84.3262 C 71.3867 -88.2812 73.2422 -89.0137 78.2715 -89.0137 L 99.4629 -89.0137 C 104.492 -89.0137 106.348 -88.2812 109.912 -84.3262 L 115.186 -78.418 C 118.506 -74.707 121.289 -73.9258 127.002 -73.9258 L 144.727 -73.9258 C 152.051 -73.9258 156.25 -70.0195 156.25 -62.3535 L 156.25 3.22266 C 156.25 10.8398 152.051 14.7949 144.727 14.7949 Z M 89.502 -65.918 C 81.4941 -65.918 73.3887 -62.7441 67.7246 -57.5195 C 65.7227 -55.8105 65.332 -53.6621 66.7969 -52.2461 C 68.2617 -50.7812 70.0195 -50.9766 71.6797 -52.3438 C 77.4414 -57.3242 83.0078 -59.5215 89.502 -59.5215 C 103.027 -59.5215 114.014 -50.0488 116.406 -37.4023 L 109.131 -37.4023 C 107.129 -37.4023 106.543 -35.5469 107.715 -33.9355 L 116.65 -20.8496 C 118.115 -18.7012 120.41 -18.6523 121.924 -20.8496 L 130.713 -33.9355 C 131.836 -35.6445 131.494 -37.4023 129.395 -37.4023 L 122.51 -37.4023 C 119.824 -54.3457 106.445 -65.918 89.502 -65.918 Z M 49.4629 -27.9785 L 56.4941 -27.9785 C 59.2285 -11.0352 72.6074 0.585938 89.5508 0.585938 C 97.5586 0.585938 105.664 -2.63672 111.328 -7.86133 C 113.33 -9.52148 113.672 -11.6699 112.256 -13.1348 C 110.791 -14.5996 109.033 -14.4043 107.324 -13.0371 C 101.611 -8.05664 96.0449 -5.85938 89.5508 -5.85938 C 76.0254 -5.85938 64.9902 -15.2832 62.6465 -27.9785 L 69.7266 -27.9785 C 71.7285 -27.9785 72.3145 -29.834 71.1426 -31.4453 L 62.207 -44.4824 C 60.7422 -46.6797 58.4473 -46.7285 56.9336 -44.4824 L 48.1445 -31.4453 C 47.0215 -29.7363 47.3633 -27.9785 49.4629 -27.9785 Z"/>
  </g>
  <g id="Thin-L" transform="matrix(1 0 0 1 767.457 1556)">
   <path d="M 32.666 20.3613 L 145.264 20.3613 C 156.152 20.3613 161.865 14.4531 161.865 3.75977 L 161.865 -62.7441 C 161.865 -73.4863 156.152 -79.3457 145.264 -79.3457 L 127.148 -79.3457 C 121.875 -79.3457 120.654 -79.5898 117.285 -83.3984 L 111.719 -89.5996 C 108.252 -93.3105 105.859 -94.3359 99.9023 -94.3359 L 76.2695 -94.3359 C 70.3125 -94.3359 67.9199 -93.3105 64.4531 -89.5996 L 58.8867 -83.3984 C 55.6641 -79.7363 54.1992 -79.3457 49.0234 -79.3457 L 32.666 -79.3457 C 21.7773 -79.3457 16.0645 -73.4863 16.0645 -62.7441 L 16.0645 3.75977 C 16.0645 14.4531 21.7773 20.3613 32.666 20.3613 Z M 32.8125 16.4062 C 24.707 16.4062 19.9707 12.0117 19.9707 3.56445 L 19.9707 -62.5488 C 19.9707 -71.0449 24.707 -75.3906 32.8125 -75.3906 L 49.2676 -75.3906 C 55.0293 -75.3906 57.6172 -75.9766 61.0352 -79.7852 L 66.5527 -85.9863 C 70.1172 -89.9414 71.9727 -90.3809 76.5625 -90.3809 L 99.6094 -90.3809 C 104.199 -90.3809 106.055 -89.9414 109.619 -85.9863 L 115.137 -79.7852 C 118.604 -75.9766 121.143 -75.3906 126.904 -75.3906 L 145.117 -75.3906 C 153.271 -75.3906 157.959 -71.0449 157.959 -62.5488 L 157.959 3.56445 C 157.959 12.0117 153.271 16.4062 145.117 16.4062 Z M 88.9648 -64.6484 C 80.7129 -64.6484 72.2656 -61.0352 66.3086 -55.1758 C 64.9902 -53.9551 64.8926 -52.5879 65.7715 -51.8066 C 66.748 -50.9277 67.7246 -51.0254 68.8965 -52.0508 C 75.6348 -58.2031 82.0801 -60.6445 88.9648 -60.6445 C 103.516 -60.6445 115.088 -50.3418 117.285 -36.1328 L 109.766 -36.1328 C 108.301 -36.1328 107.861 -34.9609 108.691 -33.7891 L 116.846 -21.2402 C 118.262 -19.1406 120.117 -19.1895 121.436 -21.2402 L 129.541 -33.7891 C 130.322 -35.1074 130.127 -36.1328 128.613 -36.1328 L 121.191 -36.1328 C 118.652 -53.1738 105.518 -64.6484 88.9648 -64.6484 Z M 49.3164 -28.0762 L 56.7871 -28.0762 C 59.3262 -11.084 72.4609 0.390625 89.0137 0.390625 C 97.2656 0.390625 105.713 -3.17383 111.67 -9.0332 C 112.988 -10.3027 113.037 -11.6211 112.207 -12.4512 C 111.23 -13.3301 110.254 -13.2324 109.033 -12.1582 C 102.344 -6.05469 95.8984 -3.61328 89.0137 -3.61328 C 74.4629 -3.61328 62.8906 -13.916 60.6934 -28.0762 L 68.1641 -28.0762 C 69.6289 -28.0762 70.0684 -29.2969 69.2383 -30.4688 L 61.084 -42.9688 C 59.668 -45.1172 57.8125 -45.0684 56.4941 -42.9688 L 48.3887 -30.4688 C 47.6074 -29.1504 47.8027 -28.0762 49.3164 -28.0762 Z"/>
  </g>
  <g id="Ultralight-L" transform="matrix(1 0 0 1 470.99 1556)">
   <path d="M 31.9824 19.7754 L 145.459 19.7754 C 155.859 19.7754 161.377 14.0625 161.377 3.85742 L 161.377 -62.793 C 161.377 -72.998 155.859 -78.7109 145.459 -78.7109 L 126.611 -78.7109 C 121.289 -78.7109 120.117 -78.8086 116.602 -82.7148 L 110.889 -89.0625 C 107.422 -92.8711 105.176 -93.6523 99.3652 -93.6523 L 76.0254 -93.6523 C 70.2148 -93.6523 67.9688 -92.8711 64.4531 -89.0625 L 58.7891 -82.7148 C 55.4688 -78.9551 54.0039 -78.7109 48.7793 -78.7109 L 31.9824 -78.7109 C 21.582 -78.7109 16.0645 -72.998 16.0645 -62.793 L 16.0645 3.85742 C 16.0645 14.0625 21.582 19.7754 31.9824 19.7754 Z M 32.1289 17.2363 C 23.584 17.2363 18.6035 12.6465 18.6035 3.75977 L 18.6035 -62.6465 C 18.6035 -71.5332 23.584 -76.1719 32.1289 -76.1719 L 48.5352 -76.1719 C 54.2969 -76.1719 56.7383 -76.6113 60.2539 -80.4688 L 65.918 -86.8164 C 69.4824 -90.7715 71.3379 -91.1133 75.7324 -91.1133 L 99.6582 -91.1133 C 104.053 -91.1133 105.908 -90.7715 109.424 -86.8164 L 115.137 -80.4688 C 118.604 -76.6113 121.045 -76.1719 126.855 -76.1719 L 145.312 -76.1719 C 153.906 -76.1719 158.838 -71.5332 158.838 -62.6465 L 158.838 3.75977 C 158.838 12.6465 153.906 17.2363 145.312 17.2363 Z M 88.7207 -63.9648 C 80.2734 -63.9648 71.6797 -60.2051 65.5762 -54.0039 C 64.5996 -52.9785 64.6973 -52.0508 65.2832 -51.5625 C 65.9668 -50.9766 66.5527 -51.0254 67.4805 -51.9531 C 74.7559 -58.6426 81.6406 -61.1816 88.7207 -61.1816 C 103.76 -61.1816 115.576 -50.5371 117.725 -35.5469 L 110.059 -35.5469 C 108.936 -35.5469 108.545 -34.6191 109.18 -33.6914 L 116.943 -21.4355 C 118.311 -19.3848 119.971 -19.4824 121.24 -21.4355 L 128.906 -33.6914 C 129.541 -34.8145 129.443 -35.5469 128.223 -35.5469 L 120.508 -35.5469 C 118.066 -52.5391 105.078 -63.9648 88.7207 -63.9648 Z M 49.2188 -28.125 L 56.9336 -28.125 C 59.375 -11.084 72.3633 0.292969 88.7207 0.292969 C 97.1191 0.292969 105.762 -3.4668 111.865 -9.66797 C 112.793 -10.6934 112.744 -11.6211 112.158 -12.1094 C 111.475 -12.6953 110.84 -12.6465 109.961 -11.7188 C 102.686 -5.0293 95.8008 -2.44141 88.7207 -2.44141 C 73.6816 -2.44141 61.8652 -13.1348 59.668 -28.125 L 67.3828 -28.125 C 68.5547 -28.125 68.8965 -29.0039 68.2617 -29.9805 L 60.498 -42.2363 C 59.1309 -44.2871 57.4707 -44.1895 56.25 -42.2363 L 48.5352 -29.9805 C 47.9004 -28.8574 47.998 -28.125 49.2188 -28.125 Z"/>
  </g>
  <g id="Black-M" transform="matrix(1 0 0 1 2859.91 1126)">
   <path d="M 31.9824 13.5742 L 114.99 13.5742 C 127.246 13.5742 134.521 6.29883 134.521 -5.95703 L 134.521 -57.8125 C 134.521 -70.0684 127.246 -77.3438 114.99 -77.3438 L 105.811 -77.3438 C 102.051 -77.3438 100.488 -77.5391 97.3633 -80.1758 L 93.7012 -83.252 C 90.625 -85.8887 87.7441 -86.6699 83.0566 -86.6699 L 63.916 -86.6699 C 59.2285 -86.6699 56.3477 -85.8887 53.2715 -83.252 L 49.6094 -80.1758 C 46.4844 -77.5391 44.9219 -77.3438 41.1621 -77.3438 L 31.9824 -77.3438 C 19.7266 -77.3438 12.4512 -70.0684 12.4512 -57.8125 L 12.4512 -5.95703 C 12.4512 6.29883 19.7266 13.5742 31.9824 13.5742 Z M 34.9121 -4.73633 C 32.0801 -4.73633 30.7617 -5.81055 30.7617 -8.88672 L 30.7617 -54.8828 C 30.7617 -57.959 32.0801 -59.0332 34.9121 -59.0332 L 48.1445 -59.0332 C 52.4902 -59.0332 54.1992 -59.5703 56.7871 -62.1582 L 60.0098 -65.2832 C 62.5 -67.7246 64.2578 -68.4082 68.3105 -68.4082 L 78.6621 -68.4082 C 82.7148 -68.4082 84.4727 -67.627 86.7188 -65.4785 L 90.1855 -62.1582 C 92.7734 -59.668 94.4824 -59.0332 98.8281 -59.0332 L 112.061 -59.0332 C 114.893 -59.0332 116.211 -57.959 116.211 -54.8828 L 116.211 -8.88672 C 116.211 -5.81055 114.893 -4.73633 112.061 -4.73633 Z M 88.8184 -25 C 90.5762 -22.9004 93.457 -22.9004 95.0684 -25 L 102.441 -34.4727 C 104.395 -36.9629 103.125 -40.0391 100.098 -40.0391 L 97.3145 -40.0391 C 95.0195 -50.8301 85.4004 -58.6914 73.6328 -58.6914 C 68.6035 -58.6914 64.7461 -57.5195 61.6699 -55.5176 C 58.4961 -53.5156 58.1055 -50.3906 59.3262 -48.0957 C 60.6934 -45.6543 63.5254 -43.9453 66.9434 -46.0449 C 69.2383 -47.4609 71.4844 -47.9492 73.6328 -47.9492 C 79.248 -47.9492 83.8379 -44.873 85.8887 -40.0391 L 83.6914 -40.0391 C 80.6641 -40.0391 79.4922 -36.9141 81.4453 -34.4727 Z M 47.1191 -29.1016 L 49.9023 -29.1016 C 52.1973 -18.2617 61.8164 -10.4004 73.584 -10.4004 C 78.6621 -10.4004 82.4707 -11.5723 85.5469 -13.623 C 88.7695 -15.625 89.1113 -18.7012 87.8906 -21.0449 C 86.5234 -23.4863 83.6914 -25.1465 80.2734 -23.0469 C 77.9785 -21.6309 75.7324 -21.1914 73.584 -21.1914 C 67.9688 -21.1914 63.4277 -24.2676 61.3281 -29.1016 L 63.5254 -29.1016 C 66.5527 -29.1016 67.7246 -32.2266 65.8203 -34.668 L 58.3984 -44.0918 C 56.6406 -46.2402 53.7598 -46.2402 52.1484 -44.0918 L 44.7754 -34.668 C 42.8711 -32.1289 44.1406 -29.1016 47.1191 -29.1016 Z"/>
  </g>
  <g id="Heavy-M" transform="matrix(1 0 0 1 2564.06 1126)">
   <path d="M 31.0059 12.6465 L 114.258 12.6465 C 126.025 12.6465 132.812 5.9082 132.812 -5.81055 L 132.812 -57.4707 C 132.812 -69.2383 126.025 -75.9766 114.258 -75.9766 L 104.541 -75.9766 C 100.781 -75.9766 99.3164 -76.3184 96.3867 -78.9062 L 92.6758 -82.3242 C 89.7461 -84.9609 86.9629 -85.8887 82.2266 -85.8887 L 62.9395 -85.8887 C 58.2031 -85.8887 55.4199 -84.9609 52.4902 -82.3242 L 48.7793 -78.9062 C 45.8496 -76.3184 44.3848 -75.9766 40.625 -75.9766 L 31.0059 -75.9766 C 19.2383 -75.9766 12.4512 -69.2383 12.4512 -57.4707 L 12.4512 -5.81055 C 12.4512 5.9082 19.2383 12.6465 31.0059 12.6465 Z M 33.252 -3.17383 C 29.9805 -3.17383 28.2715 -4.63867 28.2715 -8.1543 L 28.2715 -55.127 C 28.2715 -58.6914 29.9805 -60.1562 33.252 -60.1562 L 46.3867 -60.1562 C 50.7812 -60.1562 52.6367 -60.7422 55.1758 -63.3789 L 58.5449 -66.7969 C 61.1328 -69.3359 62.793 -70.0684 66.8945 -70.0684 L 78.2715 -70.0684 C 82.373 -70.0684 84.082 -69.2871 86.4258 -66.9434 L 89.9902 -63.3789 C 92.5293 -60.791 94.3848 -60.1562 98.7793 -60.1562 L 112.012 -60.1562 C 115.283 -60.1562 116.943 -58.6914 116.943 -55.127 L 116.943 -8.1543 C 116.943 -4.63867 115.283 -3.17383 112.012 -3.17383 Z M 89.1602 -24.707 C 90.7715 -22.6562 93.5059 -22.6562 95.0684 -24.707 L 102.441 -34.4238 C 104.199 -36.7676 103.125 -39.5996 100.342 -39.5996 L 97.0703 -39.5996 C 94.8242 -50.9277 84.9121 -59.082 72.7539 -59.082 C 67.4805 -59.082 63.1836 -57.7148 59.8633 -55.3711 C 56.8848 -53.418 56.4453 -50.4395 57.8125 -48.2422 C 59.2285 -45.9961 61.8652 -44.7754 64.9414 -46.6797 C 67.4805 -48.3887 70.0195 -49.1211 72.7539 -49.1211 C 79.248 -49.1211 84.6191 -45.2637 86.7188 -39.5996 L 83.7402 -39.5996 C 80.957 -39.5996 79.8828 -36.7188 81.6895 -34.4238 Z M 45.0684 -29.1992 L 48.3887 -29.1992 C 50.6836 -17.8223 60.5469 -9.66797 72.7539 -9.66797 C 77.9785 -9.66797 82.3242 -11.084 85.6445 -13.4277 C 88.623 -15.332 89.0137 -18.3105 87.6953 -20.5078 C 86.2793 -22.8027 83.5938 -23.9746 80.5176 -22.0703 C 77.9785 -20.3613 75.4395 -19.6777 72.7539 -19.6777 C 66.2109 -19.6777 60.8887 -23.4863 58.7402 -29.1992 L 61.6699 -29.1992 C 64.4531 -29.1992 65.5273 -32.0801 63.7207 -34.3262 L 56.25 -44.043 C 54.6387 -46.0938 51.9043 -46.1426 50.3418 -44.043 L 42.9688 -34.3262 C 41.2109 -32.0312 42.2852 -29.1992 45.0684 -29.1992 Z"/>
  </g>
  <g id="Bold-M" transform="matrix(1 0 0 1 2268.32 1126)">
   <path d="M 29.8828 11.6699 L 113.428 11.6699 C 124.658 11.6699 130.859 5.46875 130.859 -5.66406 L 130.859 -57.1289 C 130.859 -68.3105 124.658 -74.4629 113.428 -74.4629 L 103.125 -74.4629 C 99.3652 -74.4629 97.998 -74.9512 95.3125 -77.4902 L 91.5039 -81.25 C 88.7695 -83.8867 86.084 -85.0098 81.25 -85.0098 L 61.9141 -85.0098 C 57.0801 -85.0098 54.3945 -83.8867 51.6113 -81.25 L 47.8516 -77.4902 C 45.166 -74.9512 43.7988 -74.4629 39.9902 -74.4629 L 29.8828 -74.4629 C 18.6523 -74.4629 12.4512 -68.3105 12.4512 -57.1289 L 12.4512 -5.66406 C 12.4512 5.46875 18.6523 11.6699 29.8828 11.6699 Z M 31.3965 -1.41602 C 27.5879 -1.41602 25.5371 -3.27148 25.5371 -7.32422 L 25.5371 -55.4688 C 25.5371 -59.5215 27.5879 -61.377 31.3965 -61.377 L 44.4824 -61.377 C 48.8281 -61.377 50.8789 -62.0605 53.3691 -64.7461 L 56.9336 -68.457 C 59.5703 -71.1914 61.1328 -71.9238 65.332 -71.9238 L 77.832 -71.9238 C 81.9824 -71.9238 83.5938 -71.1426 86.084 -68.5547 L 89.7461 -64.7461 C 92.2363 -62.1094 94.2871 -61.377 98.6816 -61.377 L 111.914 -61.377 C 115.723 -61.377 117.773 -59.5215 117.773 -55.4688 L 117.773 -7.32422 C 117.773 -3.27148 115.723 -1.41602 111.914 -1.41602 Z M 89.502 -24.3652 C 91.0156 -22.4121 93.5547 -22.3633 95.0195 -24.3652 L 102.49 -34.4238 C 104.053 -36.5234 103.174 -39.0625 100.586 -39.0625 L 96.8262 -39.0625 C 94.5312 -51.0254 84.4238 -59.5215 71.7285 -59.5215 C 66.2598 -59.5215 61.377 -57.9102 57.8125 -55.1758 C 55.0781 -53.2715 54.5898 -50.4883 56.0547 -48.4863 C 57.5684 -46.3867 60.0586 -45.6543 62.6953 -47.4121 C 65.5273 -49.4629 68.4082 -50.4395 71.7285 -50.4395 C 79.2969 -50.4395 85.498 -45.7031 87.6465 -39.0625 L 83.8379 -39.0625 C 81.25 -39.0625 80.3711 -36.4746 81.9336 -34.4238 Z M 42.8223 -29.2969 L 46.6797 -29.2969 C 48.9746 -17.334 59.1309 -8.83789 71.7773 -8.83789 C 77.2461 -8.83789 82.1289 -10.498 85.7422 -13.1836 C 88.4766 -15.0879 88.916 -17.8711 87.5 -19.9219 C 85.9863 -22.0215 83.4961 -22.7051 80.8105 -20.9961 C 77.9785 -18.9453 75.1465 -17.9688 71.7773 -17.9688 C 64.2578 -17.9688 58.0566 -22.6562 55.9082 -29.2969 L 59.5703 -29.2969 C 62.1582 -29.2969 63.0371 -31.8848 61.4258 -33.9844 L 53.9062 -44.043 C 52.3926 -45.9961 49.8535 -46.0449 48.3887 -44.043 L 40.918 -33.9844 C 39.3555 -31.8848 40.1855 -29.2969 42.8223 -29.2969 Z"/>
  </g>
  <g id="Semibold-M" transform="matrix(1 0 0 1 1972.27 1126)">
   <path d="M 29.1016 10.9863 L 112.891 10.9863 C 123.73 10.9863 129.541 5.17578 129.541 -5.56641 L 129.541 -56.8848 C 129.541 -67.627 123.73 -73.4375 112.891 -73.4375 L 102.148 -73.4375 C 98.3887 -73.4375 97.0703 -74.0234 94.5801 -76.5137 L 90.7227 -80.4688 C 88.0859 -83.1543 85.498 -84.4238 80.5664 -84.4238 L 61.1816 -84.4238 C 56.2988 -84.4238 53.6621 -83.1543 51.0254 -80.4688 L 47.168 -76.5137 C 44.7266 -74.0234 43.3594 -73.4375 39.5996 -73.4375 L 29.1016 -73.4375 C 18.2617 -73.4375 12.4512 -67.627 12.4512 -56.8848 L 12.4512 -5.56641 C 12.4512 5.17578 18.2617 10.9863 29.1016 10.9863 Z M 30.127 -0.195312 C 25.9277 -0.195312 23.6328 -2.34375 23.6328 -6.78711 L 23.6328 -55.6641 C 23.6328 -60.1074 25.9277 -62.2559 30.127 -62.2559 L 43.1152 -62.2559 C 47.5098 -62.2559 49.707 -62.9883 52.1484 -65.6738 L 55.8105 -69.5801 C 58.4961 -72.4609 60.0098 -73.2422 64.2578 -73.2422 L 77.4902 -73.2422 C 81.7383 -73.2422 83.252 -72.4609 85.8887 -69.6289 L 89.5996 -65.6738 C 92.0898 -62.9883 94.2383 -62.2559 98.6328 -62.2559 L 111.865 -62.2559 C 116.064 -62.2559 118.359 -60.1074 118.359 -55.6641 L 118.359 -6.78711 C 118.359 -2.34375 116.064 -0.195312 111.865 -0.195312 Z M 71.0449 -59.8145 C 65.4297 -59.8145 60.1562 -58.0078 56.3965 -55.0781 C 53.8574 -53.2227 53.3203 -50.5371 54.8828 -48.584 C 56.4453 -46.6309 58.7891 -46.2891 61.1328 -47.9004 C 64.209 -50.1953 67.2363 -51.3184 71.0449 -51.3184 C 79.2969 -51.3184 86.084 -45.9961 88.2324 -38.7207 L 83.8867 -38.7207 C 81.4453 -38.7207 80.6641 -36.3281 82.1289 -34.375 L 89.7461 -24.1211 C 91.1621 -22.2168 93.5547 -22.168 95.0195 -24.1211 L 102.49 -34.375 C 103.955 -36.377 103.223 -38.7207 100.781 -38.7207 L 96.6309 -38.7207 C 94.3848 -51.123 84.0332 -59.8145 71.0449 -59.8145 Z M 41.2109 -29.3945 L 45.5078 -29.3945 C 47.8516 -16.9922 58.1543 -8.30078 71.1426 -8.30078 C 76.7578 -8.30078 81.9824 -10.1074 85.791 -13.0371 C 88.3789 -14.8926 88.8672 -17.5781 87.3535 -19.5312 C 85.791 -21.4844 83.4473 -21.8262 81.0547 -20.2148 C 77.9785 -17.9199 74.9512 -16.7969 71.1426 -16.7969 C 62.8906 -16.7969 56.0547 -22.1191 53.9551 -29.3945 L 58.1055 -29.3945 C 60.5469 -29.3945 61.3281 -31.7871 59.8633 -33.7402 L 52.2461 -43.9941 C 50.8301 -45.8984 48.4375 -45.9473 47.0215 -43.9941 L 39.502 -33.7402 C 38.0859 -31.7383 38.7695 -29.3945 41.2109 -29.3945 Z"/>
  </g>
  <g id="Medium-M" transform="matrix(1 0 0 1 1676.07 1126)">
   <path d="M 28.5156 10.4492 L 112.451 10.4492 C 122.998 10.4492 128.516 4.98047 128.516 -5.46875 L 128.516 -56.7383 C 128.516 -67.1875 122.998 -72.6562 112.451 -72.6562 L 101.416 -72.6562 C 97.6562 -72.6562 96.3867 -73.291 94.043 -75.7812 L 90.1367 -79.9316 C 87.5977 -82.6172 85.0098 -83.9355 80.0781 -83.9355 L 60.6445 -83.9355 C 55.6641 -83.9355 53.125 -82.6172 50.5859 -79.9316 L 46.6797 -75.7812 C 44.3359 -73.3398 43.0664 -72.6562 39.2578 -72.6562 L 28.5156 -72.6562 C 17.9688 -72.6562 12.4512 -67.1875 12.4512 -56.7383 L 12.4512 -5.46875 C 12.4512 4.98047 17.9688 10.4492 28.5156 10.4492 Z M 29.1504 0.732422 C 24.707 0.732422 22.168 -1.61133 22.168 -6.34766 L 22.168 -55.8594 C 22.168 -60.5469 24.707 -62.8906 29.1504 -62.8906 L 42.1387 -62.8906 C 46.5332 -62.8906 48.7793 -63.6719 51.2207 -66.3574 L 54.9316 -70.459 C 57.666 -73.4375 59.1797 -74.2188 63.4277 -74.2188 L 77.2949 -74.2188 C 81.543 -74.2188 83.0078 -73.4375 85.7422 -70.5078 L 89.502 -66.3574 C 91.9434 -63.6719 94.1895 -62.8906 98.584 -62.8906 L 111.816 -62.8906 C 116.26 -62.8906 118.799 -60.5469 118.799 -55.8594 L 118.799 -6.34766 C 118.799 -1.61133 116.26 0.732422 111.816 0.732422 Z M 70.5566 -60.0586 C 64.7949 -60.0586 59.2285 -58.1055 55.3223 -54.9805 C 52.9297 -53.125 52.3438 -50.5859 53.9551 -48.7305 C 55.5664 -46.875 57.8125 -46.7773 59.9609 -48.291 C 63.1836 -50.7812 66.4062 -52.002 70.5566 -52.002 C 79.2969 -52.002 86.5723 -46.2402 88.7207 -38.4766 L 83.9355 -38.4766 C 81.5918 -38.4766 80.9082 -36.2305 82.2754 -34.375 L 89.9414 -23.9258 C 91.2598 -22.1191 93.6035 -21.9727 94.9707 -23.9258 L 102.49 -34.375 C 103.857 -36.2305 103.223 -38.4766 100.928 -38.4766 L 96.5332 -38.4766 C 94.2383 -51.1719 83.7402 -60.0586 70.5566 -60.0586 Z M 40.0391 -29.4434 L 44.6289 -29.4434 C 46.9727 -16.748 57.4219 -7.86133 70.6543 -7.86133 C 76.3672 -7.86133 81.9336 -9.76562 85.8887 -12.9395 C 88.2812 -14.7461 88.8184 -17.334 87.207 -19.1895 C 85.6445 -21.0449 83.3496 -21.1426 81.2012 -19.6289 C 77.9785 -17.1875 74.7559 -15.918 70.6543 -15.918 C 61.8652 -15.918 54.5898 -21.6797 52.4902 -29.4434 L 57.0312 -29.4434 C 59.3262 -29.4434 60.0098 -31.6895 58.6426 -33.5449 L 51.0254 -43.9941 C 49.6582 -45.8008 47.3633 -45.8984 45.9473 -43.9941 L 38.4277 -33.5449 C 37.1094 -31.6895 37.6953 -29.4434 40.0391 -29.4434 Z"/>
  </g>
  <g id="Regular-M" transform="matrix(1 0 0 1 1380.02 1126)">
   <path d="M 27.7832 9.76562 L 111.865 9.76562 C 122.07 9.76562 127.197 4.6875 127.197 -5.37109 L 127.197 -56.4941 C 127.197 -66.5527 122.07 -71.582 111.865 -71.582 L 100.488 -71.582 C 96.6797 -71.582 95.459 -72.3633 93.3105 -74.8047 L 89.3555 -79.1992 C 86.9141 -81.8848 84.4238 -83.3496 79.3945 -83.3496 L 59.9121 -83.3496 C 54.8828 -83.3496 52.3926 -81.8848 49.9512 -79.1992 L 46.0449 -74.8047 C 43.8965 -72.4121 42.6758 -71.582 38.8672 -71.582 L 27.7832 -71.582 C 17.5781 -71.582 12.4512 -66.5527 12.4512 -56.4941 L 12.4512 -5.37109 C 12.4512 4.6875 17.5781 9.76562 27.7832 9.76562 Z M 27.8809 1.9043 C 23.0957 1.9043 20.3125 -0.683594 20.3125 -5.76172 L 20.3125 -56.0547 C 20.3125 -61.1328 23.0957 -63.7207 27.8809 -63.7207 L 40.8203 -63.7207 C 45.2148 -63.7207 47.5586 -64.5508 50 -67.2852 L 53.8086 -71.582 C 56.6406 -74.707 58.0566 -75.4883 62.3535 -75.4883 L 76.9531 -75.4883 C 81.2988 -75.4883 82.7148 -74.707 85.498 -71.582 L 89.3555 -67.2852 C 91.748 -64.5508 94.1406 -63.7207 98.5352 -63.7207 L 111.768 -63.7207 C 116.602 -63.7207 119.336 -61.1328 119.336 -56.0547 L 119.336 -5.76172 C 119.336 -0.683594 116.602 1.9043 111.768 1.9043 Z M 69.873 -60.3516 C 63.9648 -60.3516 58.0078 -58.252 53.9062 -54.834 C 51.6602 -53.0762 51.0742 -50.6348 52.7832 -48.877 C 54.4434 -47.1191 56.543 -47.3633 58.3984 -48.7793 C 61.8164 -51.5137 65.2832 -52.8809 69.873 -52.8809 C 79.3457 -52.8809 87.207 -46.4844 89.3066 -38.1348 L 83.9844 -38.1348 C 81.7871 -38.1348 81.25 -36.0352 82.4707 -34.375 L 90.1855 -23.6816 C 91.4062 -21.9238 93.6035 -21.7773 94.9707 -23.6816 L 102.539 -34.375 C 103.711 -36.084 103.271 -38.1348 101.074 -38.1348 L 96.3379 -38.1348 C 94.043 -51.2695 83.3984 -60.3516 69.873 -60.3516 Z M 38.4766 -29.541 L 43.5059 -29.541 C 45.8008 -16.4062 56.4453 -7.32422 69.9707 -7.32422 C 75.8789 -7.32422 81.7871 -9.375 85.9375 -12.793 C 88.1836 -14.5508 88.7695 -17.041 87.0605 -18.7988 C 85.4492 -20.5566 83.3008 -20.2637 81.3965 -18.8965 C 77.9785 -16.2109 74.5605 -14.7461 69.9707 -14.7461 C 60.5469 -14.7461 52.6367 -21.1426 50.5371 -29.541 L 55.6152 -29.541 C 57.7637 -29.541 58.3008 -31.5918 57.0801 -33.3008 L 49.4141 -43.9453 C 48.1445 -45.7031 45.9473 -45.8496 44.5801 -43.9453 L 37.0117 -33.3008 C 35.8398 -31.5918 36.2793 -29.541 38.4766 -29.541 Z"/>
  </g>
  <g id="Light-M" transform="matrix(1 0 0 1 1083.63 1126)">
   <path d="M 26.8555 9.0332 L 112.158 9.0332 C 121.68 9.0332 126.562 4.15039 126.562 -5.22461 L 126.562 -56.4941 C 126.562 -65.918 121.68 -70.8008 112.158 -70.8008 L 99.7559 -70.8008 C 95.8496 -70.8008 94.7266 -71.3379 92.3828 -73.9746 L 88.3301 -78.5156 C 85.791 -81.25 83.5449 -82.4707 78.6621 -82.4707 L 59.6191 -82.4707 C 54.7363 -82.4707 52.4902 -81.25 49.9512 -78.5156 L 45.8984 -73.9746 C 43.6035 -71.3867 42.4316 -70.8008 38.5254 -70.8008 L 26.8555 -70.8008 C 17.334 -70.8008 12.4512 -65.918 12.4512 -56.4941 L 12.4512 -5.22461 C 12.4512 4.15039 17.334 9.0332 26.8555 9.0332 Z M 26.9531 2.97852 C 21.582 2.97852 18.5059 0.0976562 18.5059 -5.56641 L 18.5059 -56.2012 C 18.5059 -61.8164 21.582 -64.7461 26.9531 -64.7461 L 39.7949 -64.7461 C 44.2383 -64.7461 46.4355 -65.3809 48.9746 -68.2129 L 52.9785 -72.7051 C 55.7617 -75.7812 57.1777 -76.416 61.2305 -76.416 L 77.0508 -76.416 C 81.1035 -76.416 82.5195 -75.7812 85.3027 -72.7051 L 89.3066 -68.2129 C 91.7969 -65.3809 94.043 -64.7461 98.4863 -64.7461 L 112.012 -64.7461 C 117.432 -64.7461 120.508 -61.8164 120.508 -56.2012 L 120.508 -5.56641 C 120.508 0.0976562 117.432 2.97852 112.012 2.97852 Z M 69.5312 -59.4727 C 63.4277 -59.4727 57.2266 -57.1289 52.9785 -53.2715 C 51.1719 -51.8066 50.7812 -49.9023 52.0996 -48.5352 C 53.418 -47.2168 55.0293 -47.4121 56.4941 -48.584 C 60.5957 -52.0996 64.6484 -53.6621 69.5312 -53.6621 C 79.6875 -53.6621 87.9883 -46.6309 89.8926 -37.3047 L 84.375 -37.3047 C 82.6172 -37.3047 82.1289 -35.6445 83.1543 -34.2773 L 90.332 -23.9746 C 91.5039 -22.2656 93.4082 -22.168 94.6289 -23.9746 L 101.709 -34.2773 C 102.686 -35.7422 102.344 -37.3047 100.537 -37.3047 L 95.4102 -37.3047 C 93.2617 -50.4395 82.8125 -59.4727 69.5312 -59.4727 Z M 38.3789 -29.5898 L 43.7012 -29.5898 C 45.8496 -16.4551 56.3477 -7.42188 69.5801 -7.42188 C 75.6836 -7.42188 81.8359 -9.76562 86.1816 -13.623 C 87.9395 -15.0879 88.3301 -16.9922 87.0117 -18.3594 C 85.7422 -19.6777 84.082 -19.4824 82.5684 -18.3105 C 78.4668 -14.8438 74.4629 -13.2324 69.5801 -13.2324 C 59.4238 -13.2324 51.123 -20.2637 49.2188 -29.5898 L 54.541 -29.5898 C 56.3477 -29.5898 56.7871 -31.25 55.8105 -32.6172 L 48.6328 -42.9199 C 47.4121 -44.6289 45.5078 -44.7266 44.2871 -42.9199 L 37.207 -32.6172 C 36.2305 -31.1523 36.5723 -29.5898 38.3789 -29.5898 Z"/>
  </g>
  <g id="Thin-M" transform="matrix(1 0 0 1 787.355 1126)">
   <path d="M 25.6348 8.05664 L 112.5 8.05664 C 121.143 8.05664 125.684 3.4668 125.684 -5.0293 L 125.684 -56.543 C 125.684 -65.0879 121.143 -69.6777 112.5 -69.6777 L 98.7793 -69.6777 C 94.7266 -69.6777 93.75 -69.9219 91.1621 -72.8027 L 86.9141 -77.5879 C 84.2773 -80.4688 82.3242 -81.2988 77.6855 -81.2988 L 59.1797 -81.2988 C 54.541 -81.2988 52.5879 -80.4688 49.9512 -77.5879 L 45.7031 -72.8027 C 43.2129 -70.0195 42.0898 -69.6777 38.0859 -69.6777 L 25.6348 -69.6777 C 16.9922 -69.6777 12.4512 -65.0879 12.4512 -56.543 L 12.4512 -5.0293 C 12.4512 3.4668 16.9922 8.05664 25.6348 8.05664 Z M 25.7324 4.44336 C 19.6289 4.44336 16.0645 1.12305 16.0645 -5.22461 L 16.0645 -56.3477 C 16.0645 -62.7441 19.6289 -66.0645 25.7324 -66.0645 L 38.4766 -66.0645 C 42.9688 -66.0645 44.9707 -66.5039 47.6074 -69.4824 L 51.8555 -74.2188 C 54.6387 -77.2461 56.0547 -77.6855 59.7168 -77.6855 L 77.1484 -77.6855 C 80.8105 -77.6855 82.2754 -77.2461 85.0098 -74.2188 L 89.2578 -69.4824 C 91.8945 -66.5039 93.8965 -66.0645 98.3887 -66.0645 L 112.402 -66.0645 C 118.506 -66.0645 122.021 -62.7441 122.021 -56.3477 L 122.021 -5.22461 C 122.021 1.12305 118.506 4.44336 112.402 4.44336 Z M 69.0918 -58.3008 C 62.6953 -58.3008 56.25 -55.6152 51.709 -51.2207 C 50.5371 -50.1465 50.3906 -48.9258 51.2207 -48.1445 C 52.0508 -47.3633 52.9785 -47.4609 54.0039 -48.3398 C 59.0332 -52.832 63.8184 -54.6875 69.0918 -54.6875 C 80.127 -54.6875 88.9648 -46.875 90.7227 -36.2305 L 84.9121 -36.2305 C 83.6914 -36.2305 83.3008 -35.1562 84.0332 -34.1309 L 90.5273 -24.3164 C 91.6016 -22.6562 93.1641 -22.7051 94.2383 -24.3164 L 100.635 -34.1309 C 101.318 -35.2539 101.123 -36.2305 99.8535 -36.2305 L 94.1895 -36.2305 C 92.2363 -49.3652 81.9824 -58.3008 69.0918 -58.3008 Z M 38.2324 -29.6875 L 43.9453 -29.6875 C 45.9473 -16.5039 56.2012 -7.56836 69.0918 -7.56836 C 75.4395 -7.56836 81.9336 -10.3027 86.4746 -14.6973 C 87.6465 -15.7227 87.7441 -16.9434 86.9629 -17.7246 C 86.1328 -18.5547 85.1562 -18.4082 84.1309 -17.5293 C 79.1504 -13.0371 74.3164 -11.2305 69.0918 -11.2305 C 58.0566 -11.2305 49.2188 -18.9941 47.4609 -29.6875 L 53.1738 -29.6875 C 54.4434 -29.6875 54.7852 -30.7617 54.1016 -31.7383 L 47.6074 -41.5527 C 46.4844 -43.2129 44.9219 -43.2129 43.8477 -41.5527 L 37.4512 -31.7383 C 36.7676 -30.6641 36.9629 -29.6875 38.2324 -29.6875 Z"/>
  </g>
  <g id="Ultralight-M" transform="matrix(1 0 0 1 490.863 1126)">
   <path d="M 25 7.56836 L 112.695 7.56836 C 120.85 7.56836 125.244 3.125 125.244 -4.98047 L 125.244 -56.5918 C 125.244 -64.6484 120.85 -69.1406 112.695 -69.1406 L 98.291 -69.1406 C 94.1895 -69.1406 93.2617 -69.2383 90.5762 -72.2168 L 86.1816 -77.0996 C 83.4961 -80.0293 81.6895 -80.7129 77.1484 -80.7129 L 58.9844 -80.7129 C 54.4434 -80.7129 52.6367 -80.0293 49.9512 -77.0996 L 45.6055 -72.2168 C 43.0176 -69.3359 41.8945 -69.1406 37.8418 -69.1406 L 25 -69.1406 C 16.7969 -69.1406 12.4512 -64.6484 12.4512 -56.5918 L 12.4512 -4.98047 C 12.4512 3.125 16.7969 7.56836 25 7.56836 Z M 25.0977 5.17578 C 18.6035 5.17578 14.8438 1.66016 14.8438 -5.07812 L 14.8438 -56.4453 C 14.8438 -63.2324 18.6035 -66.748 25.0977 -66.748 L 37.8418 -66.748 C 42.334 -66.748 44.2383 -67.0898 46.9238 -70.0684 L 51.3184 -74.9512 C 54.0527 -78.0273 55.4688 -78.3203 58.9355 -78.3203 L 77.1973 -78.3203 C 80.6641 -78.3203 82.1289 -78.0273 84.8633 -74.9512 L 89.209 -70.0684 C 91.8945 -67.0898 93.8477 -66.748 98.3398 -66.748 L 112.549 -66.748 C 119.092 -66.748 122.852 -63.2324 122.852 -56.4453 L 122.852 -5.07812 C 122.852 1.66016 119.092 5.17578 112.549 5.17578 Z M 68.8477 -57.7148 C 62.3535 -57.7148 55.7129 -54.834 51.0254 -50.1465 C 50.1953 -49.2676 50.1953 -48.4375 50.7324 -47.9492 C 51.3672 -47.4121 51.9531 -47.4609 52.7344 -48.1934 C 58.2031 -53.2227 63.3789 -55.1758 68.8477 -55.1758 C 80.3223 -55.1758 89.4043 -47.0215 91.1133 -35.6445 L 85.2051 -35.6445 C 84.2285 -35.6445 83.9355 -34.8633 84.4727 -34.082 L 90.625 -24.5117 C 91.6504 -22.8516 93.0176 -22.9492 93.9941 -24.5117 L 100.098 -34.082 C 100.635 -35.0098 100.537 -35.6445 99.5117 -35.6445 L 93.6035 -35.6445 C 91.6992 -48.8281 81.543 -57.7148 68.8477 -57.7148 Z M 38.1836 -29.7363 L 44.0918 -29.7363 C 45.9961 -16.5039 56.1035 -7.66602 68.8477 -7.66602 C 75.3418 -7.66602 81.9336 -10.5469 86.6211 -15.2344 C 87.5 -16.1133 87.4512 -16.9434 86.9141 -17.4316 C 86.3281 -17.9688 85.7422 -17.8711 84.9609 -17.1387 C 79.4922 -12.1094 74.2676 -10.2051 68.8477 -10.2051 C 57.3242 -10.2051 48.2422 -18.3594 46.5332 -29.7363 L 52.4902 -29.7363 C 53.4668 -29.7363 53.7598 -30.5176 53.2227 -31.2988 L 47.0703 -40.8691 C 45.9961 -42.4805 44.6289 -42.4316 43.6523 -40.8691 L 37.5977 -31.2988 C 37.0117 -30.3711 37.1582 -29.7363 38.1836 -29.7363 Z"/>
  </g>
  <g id="Black-S" transform="matrix(1 0 0 1 2875.88 696)">
   <path d="M 25 2.92969 L 90.0391 2.92969 C 99.6094 2.92969 105.273 -2.73438 105.273 -12.3047 L 105.273 -52.8809 C 105.273 -62.4512 99.6094 -68.1152 90.0391 -68.1152 L 82.8125 -68.1152 C 79.8828 -68.1152 78.6621 -68.3105 76.2207 -70.3613 L 73.3398 -72.8027 C 70.9473 -74.8535 68.7012 -75.4883 65.0391 -75.4883 L 50 -75.4883 C 46.3379 -75.4883 44.0918 -74.8535 41.6992 -72.8027 L 38.8184 -70.3613 C 36.377 -68.3105 35.1562 -68.1152 32.2266 -68.1152 L 25 -68.1152 C 15.4297 -68.1152 9.76562 -62.4512 9.76562 -52.8809 L 9.76562 -12.3047 C 9.76562 -2.73438 15.4297 2.92969 25 2.92969 Z M 27.2461 -11.2305 C 25 -11.2305 23.9258 -12.1094 23.9258 -14.5508 L 23.9258 -50.6348 C 23.9258 -53.0762 25 -53.9551 27.2461 -53.9551 L 37.5977 -53.9551 C 41.0156 -53.9551 42.3828 -54.3945 44.3848 -56.3965 L 46.9238 -58.8867 C 48.877 -60.791 50.2441 -61.3281 53.418 -61.3281 L 61.6211 -61.3281 C 64.7949 -61.3281 66.1621 -60.7422 67.9199 -59.0332 L 70.6543 -56.3965 C 72.6562 -54.4434 74.0234 -53.9551 77.4414 -53.9551 L 87.793 -53.9551 C 90.0391 -53.9551 91.1133 -53.0762 91.1133 -50.6348 L 91.1133 -14.5508 C 91.1133 -12.1094 90.0391 -11.2305 87.793 -11.2305 Z M 69.6289 -27.1973 C 70.9961 -25.5371 73.2422 -25.5371 74.5117 -27.1973 L 80.2734 -34.6191 C 81.7871 -36.5723 80.8105 -38.9648 78.4668 -38.9648 L 76.2695 -38.9648 C 74.4629 -47.4609 66.8945 -53.6621 57.6172 -53.6621 C 53.6621 -53.6621 50.6348 -52.7344 48.1934 -51.123 C 45.7031 -49.5605 45.4102 -47.1191 46.3867 -45.3125 C 47.4609 -43.4082 49.6582 -42.1387 52.3438 -43.75 C 54.1504 -44.873 55.9082 -45.2637 57.6172 -45.2637 C 62.1094 -45.2637 65.7227 -42.8223 67.334 -38.9648 L 65.5762 -38.9648 C 63.2324 -38.9648 62.3047 -36.5234 63.8184 -34.6191 Z M 36.7676 -30.4199 L 38.9648 -30.4199 C 40.7715 -21.9238 48.3398 -15.7227 57.6172 -15.7227 C 61.5723 -15.7227 64.5996 -16.6504 67.041 -18.2617 C 69.5312 -19.8242 69.8242 -22.2656 68.8477 -24.0723 C 67.7734 -25.9766 65.5762 -27.2461 62.8906 -25.6348 C 61.084 -24.5117 59.3262 -24.1211 57.6172 -24.1211 C 53.125 -24.1211 49.5117 -26.5625 47.9004 -30.4199 L 49.6582 -30.4199 C 52.002 -30.4199 52.9297 -32.8613 51.416 -34.7656 L 45.6055 -42.1875 C 44.2383 -43.8477 41.9922 -43.8477 40.7227 -42.1875 L 34.9609 -34.7656 C 33.4473 -32.8125 34.4238 -30.4199 36.7676 -30.4199 Z"/>
  </g>
  <g id="Heavy-S" transform="matrix(1 0 0 1 2579.8 696)">
   <path d="M 24.3652 2.34375 L 89.4531 2.34375 C 98.7305 2.34375 104.004 -2.97852 104.004 -12.207 L 104.004 -52.6367 C 104.004 -61.8652 98.7305 -67.1875 89.4531 -67.1875 L 81.9336 -67.1875 C 79.0039 -67.1875 77.832 -67.4805 75.5859 -69.4824 L 72.6562 -72.1191 C 70.4102 -74.2188 68.2129 -75 64.4531 -75 L 49.3164 -75 C 45.5566 -75 43.3594 -74.2188 41.1133 -72.1191 L 38.1836 -69.4824 C 35.9375 -67.4805 34.7656 -67.1875 31.8359 -67.1875 L 24.3652 -67.1875 C 15.0879 -67.1875 9.76562 -61.8652 9.76562 -52.6367 L 9.76562 -12.207 C 9.76562 -2.97852 15.0879 2.34375 24.3652 2.34375 Z M 26.0742 -10.1562 C 23.5352 -10.1562 22.2656 -11.2793 22.2656 -14.0137 L 22.2656 -50.8301 C 22.2656 -53.5645 23.5352 -54.6875 26.0742 -54.6875 L 36.377 -54.6875 C 39.7949 -54.6875 41.3086 -55.1758 43.2617 -57.2266 L 45.8984 -59.9121 C 47.9004 -61.9141 49.2188 -62.5 52.4902 -62.5 L 61.2793 -62.5 C 64.5508 -62.5 65.8691 -61.8652 67.7246 -60.0098 L 70.5078 -57.2266 C 72.4609 -55.2246 73.9746 -54.6875 77.3926 -54.6875 L 87.6953 -54.6875 C 90.2344 -54.6875 91.5527 -53.5645 91.5527 -50.8301 L 91.5527 -14.0137 C 91.5527 -11.2793 90.2344 -10.1562 87.6953 -10.1562 Z M 69.873 -26.9531 C 71.1426 -25.3418 73.291 -25.293 74.5117 -26.9531 L 80.3711 -34.6191 C 81.7871 -36.4746 80.957 -38.7207 78.7109 -38.7207 L 76.1719 -38.7207 C 74.3652 -47.6562 66.6016 -54.0527 56.9824 -54.0527 C 52.8809 -54.0527 49.5117 -52.9785 46.9238 -51.1719 C 44.5312 -49.6094 44.1895 -47.2656 45.2637 -45.5078 C 46.4355 -43.6523 48.584 -42.7734 51.0254 -44.2383 C 52.9297 -45.5566 54.8828 -46.0938 56.9824 -46.0938 C 62.0605 -46.0938 66.2109 -43.1152 67.9199 -38.7207 L 65.5762 -38.7207 C 63.3301 -38.7207 62.5 -36.4258 63.916 -34.6191 Z M 35.2051 -30.4688 L 37.793 -30.4688 C 39.5996 -21.582 47.4121 -15.1367 56.9824 -15.1367 C 61.084 -15.1367 64.4531 -16.2109 67.0898 -18.0176 C 69.4336 -19.5801 69.8242 -21.9727 68.7012 -23.7305 C 67.5293 -25.5371 65.4297 -26.4648 62.9883 -24.9512 C 61.0352 -23.6816 59.1309 -23.1445 56.9824 -23.1445 C 51.9043 -23.1445 47.7539 -26.0742 46.0938 -30.4688 L 48.3398 -30.4688 C 50.5859 -30.4688 51.416 -32.8125 50 -34.5703 L 44.0918 -42.2852 C 42.7734 -43.8965 40.625 -43.8965 39.4043 -42.2852 L 33.5449 -34.5703 C 32.1289 -32.7637 32.959 -30.4688 35.2051 -30.4688 Z"/>
  </g>
  <g id="Bold-S" transform="matrix(1 0 0 1 2283.78 696)">
   <path d="M 23.6328 1.66016 L 88.7695 1.66016 C 97.7051 1.66016 102.637 -3.22266 102.637 -12.1094 L 102.637 -52.3926 C 102.637 -61.2793 97.7051 -66.1133 88.7695 -66.1133 L 80.957 -66.1133 C 78.0273 -66.1133 76.9043 -66.5527 74.9023 -68.5059 L 71.9238 -71.3867 C 69.8242 -73.4863 67.6758 -74.4141 63.8184 -74.4141 L 48.584 -74.4141 C 44.7266 -74.4141 42.5781 -73.4863 40.4297 -71.3867 L 37.5 -68.5059 C 35.4492 -66.5527 34.375 -66.1133 31.3965 -66.1133 L 23.6328 -66.1133 C 14.6973 -66.1133 9.76562 -61.2793 9.76562 -52.3926 L 9.76562 -12.1094 C 9.76562 -3.22266 14.6973 1.66016 23.6328 1.66016 Z M 24.8047 -8.93555 C 21.9238 -8.93555 20.3613 -10.3516 20.3613 -13.4277 L 20.3613 -51.0742 C 20.3613 -54.1504 21.9238 -55.5176 24.8047 -55.5176 L 35.0098 -55.5176 C 38.4277 -55.5176 40.0879 -56.1035 42.041 -58.1543 L 44.7754 -61.0352 C 46.8262 -63.1836 48.0957 -63.8184 51.416 -63.8184 L 60.9375 -63.8184 C 64.3066 -63.8184 65.5273 -63.1836 67.5293 -61.084 L 70.3125 -58.1543 C 72.2656 -56.1035 73.9258 -55.5176 77.3438 -55.5176 L 87.5977 -55.5176 C 90.4785 -55.5176 92.041 -54.1504 92.041 -51.0742 L 92.041 -13.4277 C 92.041 -10.3516 90.4785 -8.93555 87.5977 -8.93555 Z M 70.1172 -26.6113 C 71.2891 -25.0977 73.3398 -25.0488 74.5605 -26.6113 L 80.5176 -34.6191 C 81.7871 -36.3281 81.1035 -38.4277 78.9551 -38.4277 L 76.0742 -38.4277 C 74.2676 -47.8027 66.2598 -54.4922 56.25 -54.4922 C 52.0508 -54.4922 48.2422 -53.2715 45.459 -51.2695 C 43.2129 -49.707 42.8223 -47.3633 44.043 -45.7031 C 45.3125 -43.9453 47.3633 -43.457 49.5117 -44.8242 C 51.6113 -46.2891 53.7109 -46.9727 56.25 -46.9727 C 62.0117 -46.9727 66.7969 -43.4082 68.5059 -38.4277 L 65.5762 -38.4277 C 63.4766 -38.4277 62.7441 -36.2793 64.0625 -34.6191 Z M 33.4961 -30.5664 L 36.4746 -30.5664 C 38.3301 -21.1914 46.3379 -14.502 56.2988 -14.502 C 60.5469 -14.502 64.3555 -15.7227 67.1387 -17.7734 C 69.3848 -19.2871 69.7754 -21.6309 68.5547 -23.3398 C 67.2852 -25.0488 65.2344 -25.5859 63.0371 -24.1699 C 60.9863 -22.7539 58.8867 -22.0215 56.2988 -22.0215 C 50.5371 -22.0215 45.752 -25.5859 44.043 -30.5664 L 46.875 -30.5664 C 48.9746 -30.5664 49.707 -32.7148 48.3887 -34.375 L 42.334 -42.3828 C 41.1621 -43.8965 39.1113 -43.9941 37.9395 -42.3828 L 31.9336 -34.375 C 30.6641 -32.666 31.3477 -30.5664 33.4961 -30.5664 Z"/>
  </g>
  <g id="Semibold-S" transform="matrix(1 0 0 1 1987.55 696)">
   <path d="M 23.0957 1.17188 L 88.3301 1.17188 C 97.0215 1.17188 101.66 -3.36914 101.66 -12.0117 L 101.66 -52.1973 C 101.66 -60.8398 97.0215 -65.3809 88.3301 -65.3809 L 80.2734 -65.3809 C 77.3438 -65.3809 76.2695 -65.918 74.4141 -67.8223 L 71.4355 -70.8984 C 69.3848 -72.9492 67.2852 -74.0234 63.3789 -74.0234 L 48.0469 -74.0234 C 44.1406 -74.0234 41.9922 -72.9492 39.9902 -70.8984 L 37.0117 -67.8223 C 35.1074 -65.918 34.082 -65.3809 31.1035 -65.3809 L 23.0957 -65.3809 C 14.4043 -65.3809 9.76562 -60.8398 9.76562 -52.1973 L 9.76562 -12.0117 C 9.76562 -3.36914 14.4043 1.17188 23.0957 1.17188 Z M 23.877 -8.10547 C 20.8008 -8.10547 19.0918 -9.7168 19.0918 -12.9883 L 19.0918 -51.2207 C 19.0918 -54.4922 20.8008 -56.1035 23.877 -56.1035 L 34.082 -56.1035 C 37.5 -56.1035 39.2578 -56.7383 41.1621 -58.7891 L 43.9941 -61.8164 C 46.0938 -64.0625 47.2656 -64.7461 50.6836 -64.7461 L 60.6934 -64.7461 C 64.1113 -64.7461 65.332 -64.0625 67.3828 -61.8652 L 70.2148 -58.7891 C 72.1191 -56.7383 73.877 -56.1035 77.2949 -56.1035 L 87.5488 -56.1035 C 90.6738 -56.1035 92.3828 -54.4922 92.3828 -51.2207 L 92.3828 -12.9883 C 92.3828 -9.7168 90.6738 -8.10547 87.5488 -8.10547 Z M 70.2637 -26.416 C 71.3867 -24.9512 73.3887 -24.8535 74.5605 -26.416 L 80.5664 -34.6191 C 81.7871 -36.2305 81.2012 -38.2324 79.1504 -38.2324 L 76.0254 -38.2324 C 74.1699 -47.9492 66.0156 -54.7852 55.7617 -54.7852 C 51.416 -54.7852 47.3633 -53.4668 44.4824 -51.2695 C 42.334 -49.707 41.8457 -47.4609 43.1641 -45.8008 C 44.5312 -44.1406 46.5332 -43.8965 48.4863 -45.2148 C 50.6348 -46.7773 52.8809 -47.6074 55.7617 -47.6074 C 62.0117 -47.6074 67.1875 -43.6523 68.9453 -38.2324 L 65.5762 -38.2324 C 63.5742 -38.2324 62.9395 -36.2305 64.1602 -34.6191 Z M 32.2754 -30.6152 L 35.5957 -30.6152 C 37.4512 -20.9473 45.6055 -14.0625 55.8594 -14.0625 C 60.2051 -14.0625 64.2578 -15.3809 67.1875 -17.5781 C 69.2871 -19.0918 69.7754 -21.3867 68.457 -23.0469 C 67.0898 -24.707 65.0879 -24.9512 63.1348 -23.6328 C 60.9375 -22.1191 58.7402 -21.2402 55.8594 -21.2402 C 49.6094 -21.2402 44.3848 -25.2441 42.6758 -30.6152 L 45.8496 -30.6152 C 47.9004 -30.6152 48.4863 -32.666 47.2656 -34.2773 L 41.1621 -42.4316 C 40.0391 -43.9453 38.0371 -44.043 36.9141 -42.4316 L 30.8594 -34.2773 C 29.6387 -32.6172 30.2734 -30.6152 32.2754 -30.6152 Z"/>
  </g>
  <g id="Medium-S" transform="matrix(1 0 0 1 1691.21 696)">
   <path d="M 22.7051 0.830078 L 87.9883 0.830078 C 96.5332 0.830078 100.928 -3.51562 100.928 -11.9629 L 100.928 -52.0508 C 100.928 -60.498 96.5332 -64.8438 87.9883 -64.8438 L 79.7363 -64.8438 C 76.8066 -64.8438 75.7812 -65.4785 74.0234 -67.334 L 71.0449 -70.5078 C 69.0918 -72.5586 66.9922 -73.7305 63.0371 -73.7305 L 47.6562 -73.7305 C 43.6523 -73.7305 41.6016 -72.5586 39.5996 -70.5078 L 36.6211 -67.334 C 34.8633 -65.4785 33.8379 -64.8438 30.9082 -64.8438 L 22.7051 -64.8438 C 14.209 -64.8438 9.76562 -60.498 9.76562 -52.0508 L 9.76562 -11.9629 C 9.76562 -3.51562 14.209 0.830078 22.7051 0.830078 Z M 23.1934 -7.4707 C 19.9219 -7.4707 18.0664 -9.22852 18.0664 -12.6953 L 18.0664 -51.3184 C 18.0664 -54.7852 19.9219 -56.543 23.1934 -56.543 L 33.3984 -56.543 C 36.8164 -56.543 38.623 -57.1777 40.5273 -59.2773 L 43.3594 -62.4023 C 45.5078 -64.7461 46.6797 -65.4297 50.1465 -65.4297 L 60.498 -65.4297 C 63.9648 -65.4297 65.1367 -64.7461 67.2363 -62.4023 L 70.1172 -59.2773 C 72.0215 -57.1777 73.8281 -56.543 77.2949 -56.543 L 87.5 -56.543 C 90.7715 -56.543 92.627 -54.7852 92.627 -51.3184 L 92.627 -12.6953 C 92.627 -9.22852 90.7715 -7.4707 87.5 -7.4707 Z M 70.4102 -26.2695 C 71.4844 -24.8047 73.4375 -24.707 74.5605 -26.2695 L 80.6641 -34.6191 C 81.7871 -36.1816 81.25 -38.0859 79.2969 -38.0859 L 75.9766 -38.0859 C 74.1211 -48.0469 65.8691 -55.0293 55.4199 -55.0293 C 50.9766 -55.0293 46.6797 -53.6133 43.7012 -51.3184 C 41.6504 -49.7559 41.1133 -47.5586 42.5293 -45.8984 C 43.9453 -44.2871 45.8984 -44.2871 47.7051 -45.5078 C 49.9512 -47.168 52.2461 -48.0957 55.4199 -48.0957 C 62.0117 -48.0957 67.5293 -43.7988 69.2383 -38.0859 L 65.5762 -38.0859 C 63.623 -38.0859 63.0371 -36.1328 64.209 -34.6191 Z M 31.3965 -30.6641 L 34.8633 -30.6641 C 36.7676 -20.7031 45.0195 -13.7207 55.4688 -13.7207 C 59.9121 -13.7207 64.1602 -15.1367 67.1875 -17.4316 C 69.2383 -18.9453 69.7754 -21.2402 68.3594 -22.8516 C 66.9922 -24.4629 64.9902 -24.5117 63.1836 -23.2422 C 60.8887 -21.6309 58.6426 -20.7031 55.4688 -20.7031 C 48.877 -20.7031 43.3594 -24.9512 41.6504 -30.6641 L 45.0684 -30.6641 C 47.0703 -30.6641 47.6074 -32.6172 46.4355 -34.1797 L 40.2832 -42.4805 C 39.1602 -43.9453 37.2559 -44.043 36.1328 -42.4805 L 30.0293 -34.1797 C 28.9062 -32.6172 29.3945 -30.6641 31.3965 -30.6641 Z"/>
  </g>
  <g id="Regular-S" transform="matrix(1 0 0 1 1394.96 696)">
   <path d="M 22.2168 0.390625 L 87.5488 0.390625 C 95.8496 0.390625 100 -3.71094 100 -11.9141 L 100 -51.8555 C 100 -60.0586 95.8496 -64.1113 87.5488 -64.1113 L 79.1016 -64.1113 C 76.123 -64.1113 75.1953 -64.8438 73.5352 -66.6504 L 70.5566 -70.0195 C 68.6523 -72.0703 66.6016 -73.3398 62.5977 -73.3398 L 47.1191 -73.3398 C 43.1152 -73.3398 41.0156 -72.0703 39.1602 -70.0195 L 36.1816 -66.6504 C 34.5215 -64.8438 33.5449 -64.1113 30.6152 -64.1113 L 22.2168 -64.1113 C 13.916 -64.1113 9.76562 -60.0586 9.76562 -51.8555 L 9.76562 -11.9141 C 9.76562 -3.71094 13.916 0.390625 22.2168 0.390625 Z M 22.3145 -6.68945 C 18.7988 -6.68945 16.7969 -8.54492 16.7969 -12.2559 L 16.7969 -51.4648 C 16.7969 -55.1758 18.7988 -57.0801 22.3145 -57.0801 L 32.4707 -57.0801 C 35.8887 -57.0801 37.793 -57.8125 39.6973 -59.9121 L 42.5781 -63.1836 C 44.7754 -65.625 45.8984 -66.3086 49.4141 -66.3086 L 60.2539 -66.3086 C 63.7695 -66.3086 64.8926 -65.625 67.0898 -63.1836 L 70.0195 -59.9121 C 71.875 -57.8125 73.8281 -57.0801 77.2461 -57.0801 L 87.4512 -57.0801 C 90.9668 -57.0801 92.9688 -55.1758 92.9688 -51.4648 L 92.9688 -12.2559 C 92.9688 -8.54492 90.9668 -6.68945 87.4512 -6.68945 Z M 70.5566 -26.0742 C 71.582 -24.6582 73.4375 -24.5117 74.5605 -26.0742 L 80.7129 -34.6191 C 81.7871 -36.084 81.3477 -37.8906 79.4434 -37.8906 L 75.9277 -37.8906 C 74.0723 -48.1934 65.625 -55.3223 54.9316 -55.3223 C 50.3906 -55.3223 45.8496 -53.8086 42.7246 -51.3672 C 40.7227 -49.8047 40.1855 -47.6562 41.6992 -46.0449 C 43.1641 -44.4824 45.0684 -44.7266 46.6797 -45.8984 C 49.0234 -47.7051 51.4648 -48.6816 54.9316 -48.6816 C 61.9629 -48.6816 67.9199 -43.9941 69.6289 -37.8906 L 65.5762 -37.8906 C 63.7207 -37.8906 63.2324 -36.084 64.3066 -34.6191 Z M 30.2246 -30.7129 L 33.9844 -30.7129 C 35.8887 -20.459 44.3359 -13.2812 55.0293 -13.2812 C 59.5215 -13.2812 64.0625 -14.7949 67.2363 -17.2852 C 69.1895 -18.7988 69.7754 -20.9961 68.2617 -22.6074 C 66.7969 -24.1211 64.8926 -23.877 63.2324 -22.7051 C 60.8887 -20.9961 58.4961 -19.9219 55.0293 -19.9219 C 47.9492 -19.9219 41.9922 -24.6094 40.2832 -30.7129 L 44.0918 -30.7129 C 45.9473 -30.7129 46.4355 -32.5684 45.3613 -34.0332 L 39.1113 -42.5781 C 38.0859 -43.9941 36.2305 -44.0918 35.1074 -42.5781 L 28.9551 -34.0332 C 27.8809 -32.5684 28.3203 -30.7129 30.2246 -30.7129 Z"/>
  </g>
  <g id="Light-S" transform="matrix(1 0 0 1 1098.54 696)">
   <path d="M 21.3867 -0.292969 L 87.793 -0.292969 C 95.5078 -0.292969 99.4141 -4.15039 99.4141 -11.7676 L 99.4141 -51.9043 C 99.4141 -59.5215 95.5078 -63.3789 87.793 -63.3789 L 78.418 -63.3789 C 75.3906 -63.3789 74.5117 -63.916 72.7539 -65.918 L 69.5801 -69.3848 C 67.6758 -71.5332 65.8203 -72.5586 61.9141 -72.5586 L 46.8262 -72.5586 C 42.9688 -72.5586 41.1133 -71.5332 39.1602 -69.3848 L 36.0352 -65.918 C 34.2773 -63.916 33.3496 -63.3789 30.3223 -63.3789 L 21.3867 -63.3789 C 13.6719 -63.3789 9.76562 -59.5215 9.76562 -51.9043 L 9.76562 -11.7676 C 9.76562 -4.15039 13.6719 -0.292969 21.3867 -0.292969 Z M 21.4844 -5.71289 C 17.4805 -5.71289 15.1855 -7.86133 15.1855 -12.0605 L 15.1855 -51.6113 C 15.1855 -55.8105 17.4805 -57.959 21.4844 -57.959 L 31.5918 -57.959 C 35.0586 -57.959 36.8164 -58.5449 38.7695 -60.7422 L 41.8457 -64.1602 C 44.043 -66.6016 45.166 -67.1387 48.4375 -67.1387 L 60.3516 -67.1387 C 63.623 -67.1387 64.7461 -66.6016 66.8945 -64.1602 L 69.9707 -60.7422 C 71.9238 -58.5449 73.7305 -57.959 77.1973 -57.959 L 87.6953 -57.959 C 91.6992 -57.959 93.9941 -55.8105 93.9941 -51.6113 L 93.9941 -12.0605 C 93.9941 -7.86133 91.6992 -5.71289 87.6953 -5.71289 Z M 70.7031 -26.3184 C 71.6797 -24.9512 73.291 -24.8535 74.2676 -26.3184 L 80.0293 -34.5215 C 80.8594 -35.7422 80.5664 -37.1582 79.0039 -37.1582 L 75.0977 -37.1582 C 73.3887 -47.4609 65.0879 -54.541 54.6387 -54.541 C 49.9023 -54.541 45.166 -52.832 41.8945 -49.9512 C 40.2832 -48.6816 39.9414 -46.9727 41.1133 -45.8008 C 42.2363 -44.5801 43.7012 -44.7754 45.0195 -45.752 C 47.9492 -48.1934 50.9277 -49.3652 54.6387 -49.3652 C 62.3047 -49.3652 68.6523 -44.1406 70.2148 -37.1582 L 65.9668 -37.1582 C 64.4043 -37.1582 64.0137 -35.7422 64.8926 -34.5215 Z M 30.127 -30.7617 L 34.1797 -30.7617 C 35.9375 -20.5078 44.1895 -13.3789 54.6875 -13.3789 C 59.375 -13.3789 64.1113 -15.1367 67.4316 -17.9688 C 68.9941 -19.2383 69.3848 -20.9473 68.2129 -22.168 C 67.041 -23.3887 65.5762 -23.1934 64.2578 -22.2168 C 61.3281 -19.7754 58.3984 -18.6035 54.6875 -18.6035 C 46.9727 -18.6035 40.625 -23.8281 39.0625 -30.7617 L 43.1641 -30.7617 C 44.6777 -30.7617 45.1172 -32.2266 44.1895 -33.4473 L 38.3789 -41.6504 C 37.4512 -43.0176 35.8398 -43.1152 34.8145 -41.6504 L 29.1016 -33.4473 C 28.2227 -32.2266 28.5645 -30.7617 30.127 -30.7617 Z"/>
  </g>
  <g id="Thin-S" transform="matrix(1 0 0 1 802.223 696)">
   <path d="M 20.3125 -1.12305 L 88.0859 -1.12305 C 95.0195 -1.12305 98.6328 -4.78516 98.6328 -11.6211 L 98.6328 -51.9043 C 98.6328 -58.7891 95.0195 -62.4512 88.0859 -62.4512 L 77.5879 -62.4512 C 74.4629 -62.4512 73.6328 -62.6953 71.6797 -64.8926 L 68.3594 -68.6035 C 66.3086 -70.8008 64.7461 -71.5332 61.0352 -71.5332 L 46.4844 -71.5332 C 42.7734 -71.5332 41.2109 -70.8008 39.1602 -68.6035 L 35.8398 -64.8926 C 33.9355 -62.7441 33.0566 -62.4512 29.9316 -62.4512 L 20.3125 -62.4512 C 13.3789 -62.4512 9.76562 -58.7891 9.76562 -51.9043 L 9.76562 -11.6211 C 9.76562 -4.78516 13.3789 -1.12305 20.3125 -1.12305 Z M 20.4102 -4.44336 C 15.7715 -4.44336 13.0859 -6.93359 13.0859 -11.8164 L 13.0859 -51.7578 C 13.0859 -56.5918 15.7715 -59.1309 20.4102 -59.1309 L 30.4199 -59.1309 C 33.9355 -59.1309 35.5469 -59.5215 37.5977 -61.8164 L 40.8691 -65.4785 C 43.0176 -67.8711 44.1406 -68.2617 47.0703 -68.2617 L 60.4492 -68.2617 C 63.3789 -68.2617 64.502 -67.8711 66.6504 -65.4785 L 69.9707 -61.8164 C 71.9727 -59.5215 73.6328 -59.1309 77.0996 -59.1309 L 87.9883 -59.1309 C 92.627 -59.1309 95.3125 -56.5918 95.3125 -51.7578 L 95.3125 -11.8164 C 95.3125 -6.93359 92.627 -4.44336 87.9883 -4.44336 Z M 70.8984 -26.6113 C 71.7773 -25.293 73.0469 -25.293 73.9258 -26.6113 L 79.0527 -34.4238 C 79.6875 -35.3516 79.4922 -36.2305 78.3691 -36.2305 L 74.0234 -36.2305 C 72.4609 -46.5332 64.4043 -53.5156 54.1992 -53.5156 C 49.2676 -53.5156 44.2871 -51.4648 40.7715 -48.1445 C 39.7461 -47.2168 39.5996 -46.1426 40.2832 -45.459 C 41.0645 -44.6777 41.8945 -44.7754 42.8223 -45.5566 C 46.5332 -48.877 50.1953 -50.2441 54.1992 -50.2441 C 62.6953 -50.2441 69.5312 -44.3359 70.9473 -36.2305 L 66.4551 -36.2305 C 65.3809 -36.2305 65.0391 -35.2539 65.6738 -34.4238 Z M 30.0293 -30.8594 L 34.375 -30.8594 C 35.9863 -20.5566 44.043 -13.5254 54.248 -13.5254 C 59.1797 -13.5254 64.1602 -15.5762 67.6758 -18.9453 C 68.75 -19.8242 68.8965 -20.9473 68.1641 -21.6309 C 67.3828 -22.3633 66.5527 -22.2656 65.625 -21.5332 C 61.8652 -18.2129 58.3008 -16.7969 54.248 -16.7969 C 45.752 -16.7969 38.916 -22.7539 37.5 -30.8594 L 41.9434 -30.8594 C 43.0176 -30.8594 43.3105 -31.8359 42.7246 -32.666 L 37.5 -40.4785 C 36.6211 -41.748 35.3516 -41.748 34.4727 -40.4785 L 29.2969 -32.666 C 28.7109 -31.7383 28.9062 -30.8594 30.0293 -30.8594 Z"/>
  </g>
  <g id="Ultralight-S" transform="matrix(1 0 0 1 505.707 696)">
   <path d="M 19.7754 -1.5625 L 88.2324 -1.5625 C 94.7754 -1.5625 98.2422 -5.12695 98.2422 -11.5234 L 98.2422 -51.9531 C 98.2422 -58.3984 94.7754 -61.9141 88.2324 -61.9141 L 77.1484 -61.9141 C 73.9258 -61.9141 73.1934 -62.0605 71.1426 -64.3555 L 67.7246 -68.1641 C 65.625 -70.459 64.209 -70.9961 60.5957 -70.9961 L 46.2891 -70.9961 C 42.6758 -70.9961 41.2598 -70.459 39.1602 -68.1641 L 35.7422 -64.3555 C 33.7891 -62.1582 32.9102 -61.9141 29.7363 -61.9141 L 19.7754 -61.9141 C 13.2324 -61.9141 9.76562 -58.3984 9.76562 -51.9531 L 9.76562 -11.5234 C 9.76562 -5.12695 13.2324 -1.5625 19.7754 -1.5625 Z M 19.873 -3.75977 C 14.8438 -3.75977 11.9629 -6.44531 11.9629 -11.6699 L 11.9629 -51.8555 C 11.9629 -57.0312 14.8438 -59.7168 19.873 -59.7168 L 29.834 -59.7168 C 33.3496 -59.7168 34.8633 -60.0586 36.9629 -62.3535 L 40.332 -66.1621 C 42.4805 -68.5547 43.6035 -68.7988 46.3867 -68.7988 L 60.498 -68.7988 C 63.2812 -68.7988 64.4043 -68.5547 66.5527 -66.1621 L 69.9219 -62.3535 C 72.0215 -60.0586 73.5352 -59.7168 77.0508 -59.7168 L 88.1348 -59.7168 C 93.1641 -59.7168 96.0449 -57.0312 96.0449 -51.8555 L 96.0449 -11.6699 C 96.0449 -6.44531 93.1641 -3.75977 88.1348 -3.75977 Z M 54.0039 -52.9785 C 48.9746 -52.9785 43.7988 -50.7812 40.1855 -47.168 C 39.4043 -46.4844 39.4043 -45.7031 39.8926 -45.2637 C 40.4297 -44.7754 40.9668 -44.8242 41.6504 -45.459 C 45.8008 -49.2188 49.8047 -50.7324 54.0039 -50.7324 C 62.8906 -50.7324 69.9219 -44.4336 71.2891 -35.6934 L 66.6992 -35.6934 C 65.8691 -35.6934 65.5762 -35.0098 66.0645 -34.3262 L 70.9961 -26.7578 C 71.8262 -25.4883 72.9492 -25.5371 73.7305 -26.7578 L 78.5645 -34.3262 C 79.0527 -35.1074 78.9551 -35.6934 78.0273 -35.6934 L 73.4863 -35.6934 C 71.9727 -46.0449 64.0137 -52.9785 54.0039 -52.9785 Z M 29.9316 -30.9082 L 34.5215 -30.9082 C 36.0352 -20.5566 43.9941 -13.623 54.0039 -13.623 C 59.082 -13.623 64.209 -15.8203 67.8223 -19.4336 C 68.6035 -20.166 68.6035 -20.8984 68.1152 -21.3379 C 67.5781 -21.8262 67.041 -21.7773 66.3574 -21.1914 C 62.207 -17.3828 58.2031 -15.8691 54.0039 -15.8691 C 45.1172 -15.8691 38.0859 -22.168 36.7188 -30.9082 L 41.3086 -30.9082 C 42.1387 -30.9082 42.3828 -31.5918 41.9434 -32.2754 L 37.0117 -39.8438 C 36.1816 -41.1133 35.0586 -41.0645 34.2773 -39.8438 L 29.3945 -32.2754 C 28.9551 -31.4941 29.0527 -30.9082 29.9316 -30.9082 Z"/>
  </g>
 </g>
</svg>
